<svg xmlns="http://www.w3.org/2000/svg" xmlns:xlink="http://www.w3.org/1999/xlink" width="723" height="48" viewBox="0 0 3856 256" xmlns:c2pa="http://c2pa.org/manifest"><metadata><c2pa:manifest>AAAWgmp1bWIAAAAeanVtZGMycGEAEQAQgAAAqgA4m3EDYzJwYQAAABZcanVtYgAAAEdqdW1kYzJtYQARABCAAACqADibcQN1cm46YzJwYTo3ZGUwN2M0Yy0xZjAyLTQ4MTEtODhjYy1mNTkwNzY4YTJmNDgAAAADl2p1bWIAAAApanVtZGMyYXMAEQAQgAAAqgA4m3EDYzJwYS5hc3NlcnRpb25zAAAAALxqdW1iAAAARGp1bWRjYm9yABEAEIAAAKoAOJtxE2MycGEuaW5ncmVkaWVudC52MwAAAAAYYzJzaLqytZQNwoF0qfisk7I2UGUAAABwY2JvcqNpZGM6Zm9ybWF0bWltYWdlL3N2Zyt4bWxqaW5zdGFuY2VJRHgseG1wOmlpZDphYWQyZTQ5NC1hN2U1LTRiOTYtODA4OS0xMGNjZDMxNTI2ODJscmVsYXRpb25zaGlwaHBhcmVudE9mAAAB4mp1bWIAAABBanVtZGNib3IAEQAQgAAAqgA4m3ETYzJwYS5hY3Rpb25zLnYyAAAAABhjMnNodth4BGPp7kwsTkFcpoW/NAAAAZljYm9yomdhY3Rpb25zgqJmYWN0aW9ua2MycGEub3BlbmVkanBhcmFtZXRlcnOha2luZ3JlZGllbnRzgaJjdXJseC1zZWxmI2p1bWJmPWMycGEuYXNzZXJ0aW9ucy9jMnBhLmluZ3JlZGllbnQudjNkaGFzaFggORN3o4WPdvdeZHddvBkwO5asirpg+dK9lT8BM77QkGekZmFjdGlvbngdY29tLmFudGhyb3BpYy5jbGF1ZGUucHJvdmlkZWRqcGFyYW1ldGVyc6F4H2NvbS5hbnRocm9waWMub3JpZ2luLWNvbmZpZGVuY2VndW5rbm93bmtkZXNjcmlwdGlvbnhmQ2xhdWRlIHByb3ZpZGVkIHRoaXMgZmlsZSBhdCB0aGUgcmVxdWVzdCBvZiBhIHVzZXIgYW5kIG1heSBoYXZlIGNyZWF0ZWQgb3IgbW9kaWZpZWQgdGhlIGZpbGUgY29udGVudHMubXNvZnR3YXJlQWdlbnShZG5hbWVmQ2xhdWRlcmFsbEFjdGlvbnNJbmNsdWRlZPUAAADIanVtYgAAAEBqdW1kY2JvcgARABCAAACqADibcRNjMnBhLmhhc2guZGF0YQAAAAAYYzJzaEty1QU0mePuwX/19YSDMucAAACAY2JvcqVjYWxnZnNoYTI1NmNwYWRNAAAAAAAAAAAAAAAAAGRoYXNoWCC2uviupPOpxO8SlYu3w/bHgkeSCRwfy0dlzSBiFVj0MGRuYW1lbmp1bWJmIG1hbmlmZXN0amV4Y2x1c2lvbnOBomVzdGFydBjBZmxlbmd0aBkeBAAAAj5qdW1iAAAAJ2p1bWRjMmNsABEAEIAAAKoAOJtxA2MycGEuY2xhaW0udjIAAAACD2Nib3KlY2FsZ2ZzaGEyNTZpc2lnbmF0dXJleE1zZWxmI2p1bWJmPS9jMnBhL3VybjpjMnBhOjdkZTA3YzRjLTFmMDItNDgxMS04OGNjLWY1OTA3NjhhMmY0OC9jMnBhLnNpZ25hdHVyZWppbnN0YW5jZUlEeCx4bXA6aWlkOmYyYmZlOTAyLTU2OGUtNDQ4ZS04ODdlLThlOWZjMTQ0MDI0MnJjcmVhdGVkX2Fzc2VydGlvbnODomN1cmx4LXNlbGYjanVtYmY9YzJwYS5hc3NlcnRpb25zL2MycGEuaW5ncmVkaWVudC52M2RoYXNoWCA5E3ejhY92915kd128GTA7lqyKumD50r2VPwEzvtCQZ6JjdXJseCpzZWxmI2p1bWJmPWMycGEuYXNzZXJ0aW9ucy9jMnBhLmFjdGlvbnMudjJkaGFzaFggczCkLRHUDP+o7iUrSUs4vKqAcu9nsyPMY5Ga+nb2t9iiY3VybHgpc2VsZiNqdW1iZj1jMnBhLmFzc2VydGlvbnMvYzJwYS5oYXNoLmRhdGFkaGFzaFgg21+Bq5tsGMIqGWjeDwH04v5DT7XpmLzyplrnruPpdyt0Y2xhaW1fZ2VuZXJhdG9yX2luZm+jZG5hbWVvQW50aHJvcGljIEZpbGVzZ3ZlcnNpb25lMS4wLjBrc3BlY1ZlcnNpb25lMi40LjAAABA4anVtYgAAAChqdW1kYzJjcwARABCAAACqADibcQNjMnBhLnNpZ25hdHVyZQAAABAIY2JvctKEWQISogEmGCFZAgowggIGMIIBjaADAgECAhRA5aAK7sI50L64g/oGQgU9Z1UTADAKBggqhkjOPQQDAzBJMRcwFQYDVQQKEw5BbnRocm9waWMsIFBCQzEuMCwGA1UEAxMlQW50aHJvcGljIENvbnRlbnQgQ3JlZGVudGlhbHMgUm9vdCBDQTAeFw0yNjA4MDcxODQzNTZaFw0yODA4MDYxOTQzNTZaMEQxFzAVBgNVBAoTDkFudGhyb3BpYywgUEJDMSkwJwYDVQQDEyBBbnRocm9waWMgQ2xhdWRlIENvbnRlbnQgU2lnbmluZzBZMBMGByqGSM49AgEGCCqGSM49AwEHA0IABJh6CmvLUBgFFNU0vUKlOVtE6djd17L5SuwX0LemFisBM3dkd/3cyjxFA3Qo5S46fX0/ihY0VZ7mfb9KF703t5OjWDBWMA4GA1UdDwEB/wQEAwIHgDAVBgNVHSUEDjAMBgorBgEEAYPoXgIBMAwGA1UdEwEB/wQCMAAwHwYDVR0jBBgwFoAUzlHiBIFOZFsj+OPEz5o+nMHXXMIwCgYIKoZIzj0EAwMDZwAwZAIwMXMdFJ4BetLLVY7ORuE9noqbbAZOZn/aArXyTwFAZfKrPzxF2vPoJNf1+UCdg1XGAjBwX1zd9WGqYkqmL5SFqw1QySjr1zJfpJM9+1rdDwSPLMOPOjKuiXjoU/pUUeG9RwmhY3BhZFkNngAAAAAAAAAAAAAAAAAAAAAAAAAAAAAAAAAAAAAAAAAAAAAAAAAAAAAAAAAAAAAAAAAAAAAAAAAAAAAAAAAAAAAAAAAAAAAAAAAAAAAAAAAAAAAAAAAAAAAAAAAAAAAAAAAAAAAAAAAAAAAAAAAAAAAAAAAAAAAAAAAAAAAAAAAAAAAAAAAAAAAAAAAAAAAAAAAAAAAAAAAAAAAAAAAAAAAAAAAAAAAAAAAAAAAAAAAAAAAAAAAAAAAAAAAAAAAAAAAAAAAAAAAAAAAAAAAAAAAAAAAAAAAAAAAAAAAAAAAAAAAAAAAAAAAAAAAAAAAAAAAAAAAAAAAAAAAAAAAAAAAAAAAAAAAAAAAAAAAAAAAAAAAAAAAAAAAAAAAAAAAAAAAAAAAAAAAAAAAAAAAAAAAAAAAAAAAAAAAAAAAAAAAAAAAAAAAAAAAAAAAAAAAAAAAAAAAAAAAAAAAAAAAAAAAAAAAAAAAAAAAAAAAAAAAAAAAAAAAAAAAAAAAAAAAAAAAAAAAAAAAAAAAAAAAAAAAAAAAAAAAAAAAAAAAAAAAAAAAAAAAAAAAAAAAAAAAAAAAAAAAAAAAAAAAAAAAAAAAAAAAAAAAAAAAAAAAAAAAAAAAAAAAAAAAAAAAAAAAAAAAAAAAAAAAAAAAAAAAAAAAAAAAAAAAAAAAAAAAAAAAAAAAAAAAAAAAAAAAAAAAAAAAAAAAAAAAAAAAAAAAAAAAAAAAAAAAAAAAAAAAAAAAAAAAAAAAAAAAAAAAAAAAAAAAAAAAAAAAAAAAAAAAAAAAAAAAAAAAAAAAAAAAAAAAAAAAAAAAAAAAAAAAAAAAAAAAAAAAAAAAAAAAAAAAAAAAAAAAAAAAAAAAAAAAAAAAAAAAAAAAAAAAAAAAAAAAAAAAAAAAAAAAAAAAAAAAAAAAAAAAAAAAAAAAAAAAAAAAAAAAAAAAAAAAAAAAAAAAAAAAAAAAAAAAAAAAAAAAAAAAAAAAAAAAAAAAAAAAAAAAAAAAAAAAAAAAAAAAAAAAAAAAAAAAAAAAAAAAAAAAAAAAAAAAAAAAAAAAAAAAAAAAAAAAAAAAAAAAAAAAAAAAAAAAAAAAAAAAAAAAAAAAAAAAAAAAAAAAAAAAAAAAAAAAAAAAAAAAAAAAAAAAAAAAAAAAAAAAAAAAAAAAAAAAAAAAAAAAAAAAAAAAAAAAAAAAAAAAAAAAAAAAAAAAAAAAAAAAAAAAAAAAAAAAAAAAAAAAAAAAAAAAAAAAAAAAAAAAAAAAAAAAAAAAAAAAAAAAAAAAAAAAAAAAAAAAAAAAAAAAAAAAAAAAAAAAAAAAAAAAAAAAAAAAAAAAAAAAAAAAAAAAAAAAAAAAAAAAAAAAAAAAAAAAAAAAAAAAAAAAAAAAAAAAAAAAAAAAAAAAAAAAAAAAAAAAAAAAAAAAAAAAAAAAAAAAAAAAAAAAAAAAAAAAAAAAAAAAAAAAAAAAAAAAAAAAAAAAAAAAAAAAAAAAAAAAAAAAAAAAAAAAAAAAAAAAAAAAAAAAAAAAAAAAAAAAAAAAAAAAAAAAAAAAAAAAAAAAAAAAAAAAAAAAAAAAAAAAAAAAAAAAAAAAAAAAAAAAAAAAAAAAAAAAAAAAAAAAAAAAAAAAAAAAAAAAAAAAAAAAAAAAAAAAAAAAAAAAAAAAAAAAAAAAAAAAAAAAAAAAAAAAAAAAAAAAAAAAAAAAAAAAAAAAAAAAAAAAAAAAAAAAAAAAAAAAAAAAAAAAAAAAAAAAAAAAAAAAAAAAAAAAAAAAAAAAAAAAAAAAAAAAAAAAAAAAAAAAAAAAAAAAAAAAAAAAAAAAAAAAAAAAAAAAAAAAAAAAAAAAAAAAAAAAAAAAAAAAAAAAAAAAAAAAAAAAAAAAAAAAAAAAAAAAAAAAAAAAAAAAAAAAAAAAAAAAAAAAAAAAAAAAAAAAAAAAAAAAAAAAAAAAAAAAAAAAAAAAAAAAAAAAAAAAAAAAAAAAAAAAAAAAAAAAAAAAAAAAAAAAAAAAAAAAAAAAAAAAAAAAAAAAAAAAAAAAAAAAAAAAAAAAAAAAAAAAAAAAAAAAAAAAAAAAAAAAAAAAAAAAAAAAAAAAAAAAAAAAAAAAAAAAAAAAAAAAAAAAAAAAAAAAAAAAAAAAAAAAAAAAAAAAAAAAAAAAAAAAAAAAAAAAAAAAAAAAAAAAAAAAAAAAAAAAAAAAAAAAAAAAAAAAAAAAAAAAAAAAAAAAAAAAAAAAAAAAAAAAAAAAAAAAAAAAAAAAAAAAAAAAAAAAAAAAAAAAAAAAAAAAAAAAAAAAAAAAAAAAAAAAAAAAAAAAAAAAAAAAAAAAAAAAAAAAAAAAAAAAAAAAAAAAAAAAAAAAAAAAAAAAAAAAAAAAAAAAAAAAAAAAAAAAAAAAAAAAAAAAAAAAAAAAAAAAAAAAAAAAAAAAAAAAAAAAAAAAAAAAAAAAAAAAAAAAAAAAAAAAAAAAAAAAAAAAAAAAAAAAAAAAAAAAAAAAAAAAAAAAAAAAAAAAAAAAAAAAAAAAAAAAAAAAAAAAAAAAAAAAAAAAAAAAAAAAAAAAAAAAAAAAAAAAAAAAAAAAAAAAAAAAAAAAAAAAAAAAAAAAAAAAAAAAAAAAAAAAAAAAAAAAAAAAAAAAAAAAAAAAAAAAAAAAAAAAAAAAAAAAAAAAAAAAAAAAAAAAAAAAAAAAAAAAAAAAAAAAAAAAAAAAAAAAAAAAAAAAAAAAAAAAAAAAAAAAAAAAAAAAAAAAAAAAAAAAAAAAAAAAAAAAAAAAAAAAAAAAAAAAAAAAAAAAAAAAAAAAAAAAAAAAAAAAAAAAAAAAAAAAAAAAAAAAAAAAAAAAAAAAAAAAAAAAAAAAAAAAAAAAAAAAAAAAAAAAAAAAAAAAAAAAAAAAAAAAAAAAAAAAAAAAAAAAAAAAAAAAAAAAAAAAAAAAAAAAAAAAAAAAAAAAAAAAAAAAAAAAAAAAAAAAAAAAAAAAAAAAAAAAAAAAAAAAAAAAAAAAAAAAAAAAAAAAAAAAAAAAAAAAAAAAAAAAAAAAAAAAAAAAAAAAAAAAAAAAAAAAAAAAAAAAAAAAAAAAAAAAAAAAAAAAAAAAAAAAAAAAAAAAAAAAAAAAAAAAAAAAAAAAAAAAAAAAAAAAAAAAAAAAAAAAAAAAAAAAAAAAAAAAAAAAAAAAAAAAAAAAAAAAAAAAAAAAAAAAAAAAAAAAAAAAAAAAAAAAAAAAAAAAAAAAAAAAAAAAAAAAAAAAAAAAAAAAAAAAAAAAAAAAAAAAAAAAAAAAAAAAAAAAAAAAAAAAAAAAAAAAAAAAAAAAAAAAAAAAAAAAAAAAAAAAAAAAAAAAAAAAAAAAAAAAAAAAAAAAAAAAAAAAAAAAAAAAAAAAAAAAAAAAAAAAAAAAAAAAAAAAAAAAAAAAAAAAAAAAAAAAAAAAAAAAAAAAAAAAAAAAAAAAAAAAAAAAAAAAAAAAAAAAAAAAAAAAAAAAAAAAAAAAAAAAAAAAAAAAAAAAAAAAAAAAAAAAAAAAAAAAAAAAAAAAAAAAAAAAAAAAAAAAAAAAAAAAAAAAAAAAAAAAAAAAAAAAAAAAAAAAAAAAAAAAAAAAAAAAAAAAAAAAAAAAAAAAAAAAAAAAAAAAAAAAAAAAAAAAAAAAAAAAAAAAAAAAAAAAAAAAAAAAAAAAAAAAAAAAAAAAAAAAAAAAAAAAAAAAAAAAAAAAAAAAAAAAAAAAAAAAAAAAAAAAAAAAAAAAAAAAAAAAAAAAAAAAAAAAAAAAAAAAAAAAAAAAAAAAAAAAAAAAAAAAAAAAAAAAAAAAAAAAAAAAAAAAAAAAAAAAAAAAAAAAAAAAAAAAAAAAAAAAAAAAAAAAAAAAAAAAAAAAAAAAAAAAAAAAAAAAAAAAAAAAAAAAAAAAAAAAAAAAAAAAAAAAAAAAAAAAAAAAAAAAAAAAAAAAAAAAAAAAAAAAAAAAAAAAAAAAAAAAAAAAAAAAAAAAAAAAAAAAAAAAAAAAAAAAAAAAAAAAAAAAAAAAAAAAAAAAAAAAAAAAAAAAAAAAAAAAAAAAAAAAAAAAAAAAAAAAAAAAAAAAAAAAAAAAAAAAAAAAAAAAAAAAAAAAAAAAAAAAAAAAAAAAAAAAAAAAAAAAAAAAAAAAAAAAAAAAAAAAAAAAAAAAAAAAAAAAAAAAAAAAAAAAAAAAAAAAAAAAAAAAAAAAAAAAAAAAAAAAAAAAAAAAAAAAAAAAAAAAAAAAAAAAAAAAAAAAAAAAAAAAAAAAAAAAAAAAAAAAAAAAAAAAAAAAAAAAAAAAAAAAAAAAAAAAAAAAAAAAAAAAAAAAAAAAAAAAAAAAAAAAAAAAAAAAAAAAAAAAAAAAAAAAAAAAAAAAAAAAAAAAAAAAAAAAAAAAAAAAAAAAAAAAAAAAAAAAAAAAAAAAAAAAAAAAAAAAAAAAAAAAAAAAAAAAAAAAAAAAAAAAAAAAAAAAAAAAAAAAAAAAAAAAAAAAAAAAAAAAAAAAAAAAAAAAAAAAAAAAAAAAAAAAAAAAAAAAAAAAAAAAAAAAAAAAAAAAAAAAAAAAAAAAAAAAAAAAAAAAAAAAAAAAAAAAAAAAAAAAAAAAAAAAAAAAAAAAAAAAAAAAAAAAAAAAAAAAAAAAAAAAAAAAAAAAAAAAAAAAAAAAAAAAAAPZYQMgg329KIsleXndHJwThdfkCkVpE024p+4IlIz5VQL3bfgJii3dPoe4CiTqHdA+IyegmNAiyv/B1LwLaTBCX1eg=</c2pa:manifest></metadata><svg x="0" y="0" width="256" height="256" viewBox="0 0 256 256"><rect width="256" height="256" fill="#242938" rx="60"/><g clip-path="url(#i0_clip0_7_218)"><path fill="#A41E11" d="M220.161 174.468C209.488 180.035 154.204 202.765 142.434 208.899C130.663 215.034 124.126 214.976 114.826 210.532C105.526 206.089 46.6945 182.326 36.0904 177.257C30.7884 174.722 28.0101 172.591 28.0101 170.576V150.36C28.0101 150.36 104.609 133.685 116.978 129.247C129.348 124.809 133.627 124.65 144.157 128.505C154.687 132.359 217.606 143.711 228.003 147.523V167.459C228.003 169.458 225.607 171.7 220.172 174.479L220.161 174.468Z"/><path fill="#D82C20" d="M220.162 154.246C209.488 159.813 154.204 182.543 142.434 188.677C130.663 194.812 124.126 194.753 114.826 190.31C105.526 185.867 46.6946 162.103 36.0905 157.035C25.4864 151.966 25.2743 148.483 35.6822 144.405L116.973 112.932C129.338 108.5 133.622 108.335 144.151 112.19C154.681 116.045 209.632 137.916 220.024 141.786C230.416 145.657 230.824 148.732 220.151 154.299L220.162 154.246Z"/><path fill="#A41E11" d="M220.161 141.5C209.488 147.067 154.204 169.797 142.434 175.931C130.663 182.066 124.126 182.007 114.826 177.564C105.526 173.121 46.6945 149.357 36.0904 144.289C30.7884 141.754 28.0101 139.623 28.0101 137.608V117.391C28.0101 117.391 104.609 100.716 116.978 96.2787C129.348 91.8409 133.627 91.6818 144.157 95.5364C154.687 99.391 217.606 110.743 228.003 114.555V134.491C228.003 136.489 225.607 138.732 220.172 141.51L220.161 141.5Z"/><path fill="#D82C20" d="M220.162 121.283C209.488 126.85 154.204 149.58 142.434 155.715C130.663 161.849 124.126 161.791 114.826 157.348C105.526 152.904 46.6946 129.141 36.0905 124.072C25.4864 119.003 25.2743 115.52 35.6822 111.442L116.973 79.9748C129.338 75.537 133.622 75.378 144.151 79.2326C154.681 83.0871 209.632 104.963 220.034 108.765C230.437 112.567 230.835 115.711 220.162 121.278V121.283Z"/><path fill="#A41E11" d="M220.161 107.312C209.488 112.879 154.204 135.609 142.434 141.749C130.663 147.889 124.126 147.825 114.826 143.382C105.526 138.939 46.6945 115.175 36.0904 110.106C30.7884 107.572 28.0101 105.441 28.0101 103.426V83.1985C28.0101 83.1985 104.609 66.5236 116.978 62.0858C129.348 57.648 133.627 57.4889 144.157 61.3435C154.687 65.1981 217.606 76.5498 228.003 80.3619V100.298C228.003 102.297 225.607 104.539 220.172 107.318L220.161 107.312Z"/><path fill="#D82C20" d="M220.162 87.0902C209.488 92.6573 154.204 115.387 142.434 121.522C130.663 127.656 124.126 127.598 114.826 123.155C105.526 118.712 46.6946 94.9478 36.0905 89.8791C25.4864 84.8103 25.2743 81.3269 35.6822 77.2496L116.973 45.782C129.338 41.3442 133.622 41.1851 144.151 45.0397C154.681 48.8943 209.632 70.7705 220.034 74.5721C230.437 78.3736 230.835 81.5177 220.162 87.0849V87.0902Z"/><path fill="#fff" d="M132.996 78.7554L126.729 68.3369L106.719 66.5342L121.65 61.1473L117.169 52.8761L131.146 58.3372L144.326 54.0213L140.763 62.5682L154.199 67.6052L136.872 69.4079L132.996 78.7554ZM99.6143 99.497L145.954 92.3816L131.957 112.911L99.6143 99.497Z"/><path fill="#fff" d="M87.1226 92.0158C100.803 92.0158 111.894 87.7168 111.894 82.4138C111.894 77.1107 100.803 72.8118 87.1226 72.8118C73.4419 72.8118 62.3515 77.1107 62.3515 82.4138C62.3515 87.7168 73.4419 92.0158 87.1226 92.0158Z"/><path fill="#7A0C00" d="M202.113 81.0141L174.702 91.8408L174.681 70.1714L202.113 81.0141Z"/><path fill="#AD2115" d="M174.707 91.8408L171.738 93.0072L144.348 82.1805L174.691 70.1766L174.707 91.8408Z"/></g><defs><clipPath id="i0_clip0_7_218"><rect width="200" height="200" fill="#fff" transform="translate(28 28)"/></clipPath></defs></svg><svg x="300" y="0" width="256" height="256" viewBox="0 0 256 256"><rect width="256" height="256" fill="#242938" rx="60"/><path fill="#336791" d="M203.48 148.688C183.16 152.878 181.684 145.995 181.684 145.995C203.15 114.143 212.129 73.7134 204.38 63.8204C183.259 36.8204 146.689 49.5962 146.077 49.9266L145.88 49.9618C141.414 49.0656 136.873 48.5924 132.317 48.5485C123.12 48.4079 116.145 50.9602 110.844 54.9751C110.844 54.9751 45.6078 28.1016 48.6453 88.7743C49.2922 101.684 67.1375 186.509 88.4422 160.845C96.2891 151.409 103.812 143.484 103.812 143.484C107.539 145.966 112.018 147.232 116.708 146.775L117.073 146.466C116.966 147.681 117.016 148.905 117.221 150.108C111.737 156.239 113.354 157.315 102.385 159.572C91.2898 161.857 97.8148 165.928 102.062 166.997C107.223 168.291 119.162 170.119 127.234 158.827L126.91 160.113C129.062 161.836 130.566 171.314 130.313 179.906C130.06 188.499 129.891 194.391 131.579 199.003C133.266 203.616 134.954 213.98 149.368 210.956C161.413 208.376 167.649 201.675 168.528 190.524C169.147 182.592 170.539 183.759 170.638 176.672L171.763 173.311C173.049 162.553 171.973 159.087 179.391 160.704L181.198 160.866C186.662 161.112 193.813 159.987 198.003 158.039C207.038 153.849 212.396 146.845 203.487 148.688H203.48Z"/><path stroke="#fff" stroke-linecap="round" stroke-linejoin="round" stroke-width="5.034" d="M146.07 48.5961C143.82 49.2993 182.38 34.4985 204.303 62.504C212.038 72.3969 203.073 112.827 181.606 144.678M128.098 153.784C127.536 173.795 128.239 193.946 130.194 198.784C132.148 203.621 136.346 213.198 150.767 210.118C162.812 207.538 167.199 202.538 169.098 191.506L173.548 156.231L128.098 153.784ZM110.816 53.4688C110.816 53.4688 45.5375 26.7782 48.575 87.4508C49.2219 100.36 67.0672 185.185 88.3719 159.521C96.1484 150.148 103.18 142.815 103.18 142.815L110.816 53.4688Z"/><path stroke="#fff" stroke-linecap="round" stroke-linejoin="bevel" stroke-width="5.034" d="M181.613 144.664C181.613 144.664 183.02 151.555 203.41 147.35C212.319 145.508 206.954 152.511 197.926 156.702C190.515 160.147 173.893 161.026 173.619 156.28C172.916 144.01 182.366 147.737 181.684 144.664C181.065 141.894 176.832 139.18 174.048 132.402C171.608 126.495 140.579 81.1438 182.654 87.8727C184.201 87.5563 171.685 47.7946 132.31 47.2181C92.9352 46.6415 94.1797 95.6282 94.1797 95.6282"/><path stroke="#fff" stroke-linejoin="round" stroke-width="5.034" d="M117.08 148.869C111.596 155 113.213 156.076 102.245 158.333C91.1492 160.618 97.6742 164.689 101.921 165.758C107.082 167.052 119.021 168.88 127.093 157.58C129.554 154.135 127.079 148.651 123.704 147.259C122.073 146.584 119.893 145.74 117.095 148.876L117.08 148.869Z"/><path stroke="#fff" stroke-linecap="round" stroke-linejoin="round" stroke-width="5.034" d="M116.722 148.763C116.159 145.156 117.903 140.874 119.766 135.854C122.565 128.331 129.02 120.807 123.859 96.9219C120.013 79.1329 94.1867 93.2165 94.1867 95.6282C94.1867 98.0399 95.3539 107.863 93.7648 119.288C91.6766 134.209 103.257 146.823 116.588 145.536"/><path fill="#fff" stroke="#fff" stroke-width="1.68" d="M110.577 95.2695C110.457 96.0922 112.088 98.293 114.205 98.5883C116.321 98.8836 118.128 97.168 118.248 96.3383C118.367 95.5086 116.736 94.6086 114.62 94.3133C112.503 94.018 110.682 94.4539 110.577 95.2695V95.2695Z"/><path fill="#fff" stroke="#fff" stroke-width=".837" d="M175.011 93.5891C175.123 94.4118 173.499 96.6125 171.383 96.9079C169.266 97.2032 167.445 95.4875 167.34 94.6579C167.234 93.8282 168.852 92.9282 170.968 92.6329C173.084 92.3375 174.905 92.7735 175.011 93.5891Z"/><path stroke="#fff" stroke-linecap="round" stroke-linejoin="round" stroke-width="5.034" d="M182.577 87.8867C182.928 94.3555 181.184 98.75 180.959 105.634C180.636 115.632 185.727 127.079 178.055 138.54"/></svg><svg x="600" y="0" width="256" height="256" viewBox="0 0 256 256"><rect width="256" height="256" fill="#242938" rx="60"/><g clip-path="url(#i2_clip0_7_147)"><path fill="#fff" fill-rule="evenodd" d="M203.801 178.21C194.011 177.938 186.416 178.941 180.051 181.619C178.218 182.355 175.277 182.355 175.035 184.662C176.015 185.63 176.133 187.214 176.992 188.556C178.459 190.991 181.033 194.271 183.357 195.973L191.191 201.571C195.965 204.488 201.351 206.193 206.002 209.113C208.696 210.817 211.388 213.007 214.082 214.834C215.454 215.807 216.285 217.392 218 217.997V217.629C217.144 216.538 216.897 214.957 216.044 213.735L212.367 210.209C208.82 205.465 204.41 201.325 199.636 197.922C195.718 195.245 187.152 191.596 185.56 187.097L185.319 186.824C188.008 186.552 191.191 185.605 193.764 184.875C197.929 183.784 201.721 184.024 206.002 182.93L211.882 181.226V180.135C209.678 177.946 208.087 175.025 205.763 172.959C199.521 167.606 192.661 162.373 185.56 157.994C181.766 155.562 176.868 153.977 172.829 151.913C171.356 151.182 168.911 150.817 168.055 149.601C165.846 146.929 164.625 143.397 163.034 140.232L152.997 119.064C150.794 114.319 149.444 109.574 146.755 105.195C134.144 84.5124 120.431 71.9828 99.375 59.6932C94.8477 57.1382 89.4616 56.0393 83.7353 54.7032L74.5546 54.2124C72.5928 53.3616 70.6364 51.0493 68.9216 49.9531C61.9441 45.5739 43.9475 36.0847 38.8029 48.5897C35.4966 56.4974 43.7006 64.2824 46.4855 68.299C48.5708 71.0966 51.2597 74.2597 52.7332 77.4228C53.5563 79.4897 53.8307 81.682 54.6895 83.8717C56.6458 89.2243 58.4842 95.1878 61.0551 100.178C62.427 102.733 63.8675 105.413 65.5824 107.723C66.5619 109.086 68.2768 109.67 68.6417 111.859C66.9268 114.294 66.8089 117.94 65.8293 120.986C61.42 134.734 63.1349 151.766 69.377 161.888C71.3389 164.928 75.9622 171.622 82.2345 169.065C87.744 166.875 86.5148 159.941 88.1062 153.857C88.4766 152.399 88.2297 151.425 88.9623 150.449V150.722L93.9834 160.819C97.7781 166.78 104.391 172.986 109.897 177.125C112.833 179.315 115.16 183.089 118.831 184.425V184.057H118.59C117.854 182.966 116.751 182.475 115.772 181.624C113.569 179.435 111.121 176.757 109.406 174.325C104.267 167.513 99.7399 159.968 95.6983 152.183C93.7365 148.412 92.0216 144.275 90.4357 140.504C89.6949 139.043 89.6949 136.85 88.4739 136.125C86.6355 138.797 83.9466 141.115 82.5939 144.398C80.2672 149.628 80.0257 156.077 79.1697 162.769C78.6758 162.891 78.8953 162.769 78.6758 163.041C74.7631 162.071 73.4132 158.051 71.9453 154.648C68.274 146.01 67.6594 132.141 70.8422 122.164C71.6983 119.609 75.375 111.579 73.9071 109.146C73.1662 106.834 70.7242 105.498 69.3743 103.671C67.7829 101.359 66.0735 98.4409 64.9705 95.8859C62.0346 89.0689 60.5667 81.5293 57.3812 74.7151C55.9077 71.552 53.3396 68.2662 51.257 65.3486C48.9303 62.0628 46.3648 59.7505 44.5265 55.8593C43.9146 54.4959 43.0585 52.3309 44.0381 50.8693C44.2795 49.8959 44.7734 49.5059 45.7475 49.2878C47.3389 47.9244 51.8716 49.6532 53.463 50.3785C57.9903 52.2054 61.7849 53.907 65.5796 56.4592C67.2945 57.6754 69.1329 59.9877 71.3361 60.5985H73.9098C77.8279 61.4493 82.2317 60.8712 85.9002 61.9619C92.3893 64.0343 98.2637 67.0719 103.532 70.3604C119.567 80.4577 132.792 94.8143 141.725 111.971C143.193 114.769 143.805 117.324 145.155 120.244C147.729 126.208 150.912 132.289 153.477 138.132C156.051 143.85 158.498 149.694 162.17 154.438C164.008 156.993 171.35 158.329 174.654 159.668C177.104 160.759 180.896 161.741 183.105 163.077C187.264 165.632 191.427 168.552 195.342 171.35C197.298 172.806 203.423 175.849 203.787 178.276L203.801 178.21ZM78.9584 72.4873C77.267 72.4724 75.5809 72.6769 73.9427 73.0954V73.3681H74.1842C75.1637 75.315 76.8786 76.6538 78.1023 78.3581L80.9202 84.1989L81.1616 83.9262C82.8765 82.71 83.7353 80.7631 83.7353 77.8454C83 76.9947 82.8793 76.1412 82.2674 75.2904C81.5321 74.0743 79.9407 73.4635 78.9584 72.4928V72.4873Z" clip-rule="evenodd"/></g><defs><clipPath id="i2_clip0_7_147"><rect width="180" height="180" fill="#fff" transform="translate(38 38)"/></clipPath></defs></svg><svg x="900" y="0" width="256" height="256" viewBox="0 0 256 256"><rect width="256" height="256" fill="#2396ED" rx="60"/><path fill="#fff" d="M141.187 122.123H161.904V103.379H141.187V122.123ZM116.525 122.123H137.241V103.379H116.525V122.123ZM92.3554 122.123H113.072V103.379H92.3554V122.123ZM68.1859 122.123H88.4093V103.379H68.1859V122.123ZM43.5233 122.123H64.2399V103.379H43.5233V122.123ZM68.1859 99.4333H88.4093V80.6896H68.1859V99.4333ZM92.3554 99.4333H113.072V80.6896H92.3554V99.4333ZM116.525 99.4333H137.241V80.6896H116.525V99.4333ZM116.525 76.7436H137.241V58H116.525V76.7436ZM228 113.738C228 113.738 219.121 105.352 200.871 108.312C198.898 94.0075 183.607 85.6222 183.607 85.6222C183.607 85.6222 169.303 102.886 179.661 122.123C176.702 123.603 171.769 125.576 164.37 125.576H28.7257C26.2594 134.948 26.2594 197.097 94.3284 197.097C143.16 197.097 179.661 174.408 196.925 132.974C222.574 134.948 228 113.738 228 113.738Z"/></svg><svg x="1200" y="0" width="256" height="256" viewBox="0 0 256 256"><rect width="256" height="256" fill="#326CE5" rx="60"/><path fill="#fff" stroke="#fff" stroke-width=".11" d="M128.073 30C124.796 30.2304 122.313 33.0377 122.484 36.3143V37.9185C122.637 39.736 122.91 41.5364 123.269 43.3198C123.792 46.7349 123.98 50.1928 123.832 53.6446C123.507 54.7794 122.859 55.8034 121.972 56.5884L121.844 58.9947C118.388 59.2848 114.958 59.8138 111.579 60.5818C97.3628 63.7901 84.4184 71.1625 74.4264 81.7859L72.3785 80.3353C71.2522 80.6767 70.0405 80.5487 69.0081 79.994C66.2384 77.9441 63.675 75.6293 61.3541 73.0824C60.1883 71.6894 58.9432 70.3646 57.6252 69.1146L56.3624 68.1078C55.236 67.2033 53.8537 66.6828 52.4117 66.6145C51.5511 66.5689 50.6919 66.7275 49.9045 67.0775C49.117 67.4275 48.4235 67.9589 47.8807 68.6283C45.9523 71.3332 46.5837 75.0791 49.2801 77.0161L50.4576 77.9547C51.9734 78.9632 53.546 79.8834 55.1678 80.7108C58.1884 82.3918 61.0384 84.3629 63.6836 86.6838C64.3602 87.6487 64.7533 88.7837 64.8184 89.9604L66.6786 91.667C56.6354 106.736 52.514 124.988 55.091 142.915L52.7018 143.598C52.0789 144.588 51.2512 145.433 50.2614 146.055C46.928 146.946 43.5158 147.509 40.0731 147.736C38.2461 147.774 36.4227 147.916 34.6121 148.163L33.1018 148.504H32.9311C31.883 148.65 30.8958 149.083 30.0795 149.757C29.2632 150.43 28.6497 151.316 28.3074 152.318C27.9651 153.319 27.9074 154.396 28.1407 155.428C28.374 156.46 28.8892 157.407 29.6289 158.164C30.3755 158.916 31.3168 159.447 32.3475 159.695C33.3781 159.944 34.4577 159.901 35.4654 159.571H35.5763L37.1122 159.401C38.8444 158.889 40.551 158.257 42.2149 157.541C45.4147 156.261 48.734 155.279 52.1301 154.64C53.3076 154.708 54.4339 155.109 55.3896 155.791L57.9495 155.365C63.4958 172.576 75.1517 187.158 90.7157 196.348L89.6746 198.524C90.1525 199.522 90.3317 200.632 90.1866 201.732C88.7787 204.992 87.0551 208.115 85.0413 211.05C83.9366 212.506 82.9167 214.025 81.9865 215.598L81.2612 217.134C80.735 218.047 80.4713 219.088 80.4992 220.141C80.5271 221.194 80.8456 222.219 81.4194 223.103C81.9932 223.987 82.8001 224.695 83.751 225.149C84.7018 225.603 85.7596 225.785 86.8076 225.676C87.858 225.557 88.8551 225.15 89.6881 224.5C90.5211 223.849 91.1574 222.98 91.5263 221.989L92.2345 220.539C92.883 218.832 93.4291 217.091 93.8728 215.334C95.3831 211.605 96.2023 207.603 98.2672 205.128C98.9421 204.494 99.7926 204.078 100.708 203.934L101.988 201.604C118.859 208.089 137.528 208.135 154.431 201.732L155.565 203.908C156.726 204.079 157.767 204.719 158.467 205.657C160.071 208.712 161.368 211.912 162.358 215.214C162.809 216.982 163.362 218.723 164.013 220.428L164.721 221.878C165.094 222.865 165.732 223.73 166.565 224.376C167.398 225.023 168.394 225.426 169.443 225.542C170.491 225.658 171.551 225.481 172.505 225.032C173.46 224.583 174.271 223.878 174.85 222.996C175.423 222.109 175.739 221.081 175.763 220.025C175.787 218.969 175.518 217.927 174.986 217.015L174.244 215.479C173.314 213.911 172.294 212.398 171.189 210.948C169.227 208.115 167.537 205.094 166.069 201.929C165.932 201.35 165.913 200.749 166.013 200.163C166.113 199.577 166.329 199.016 166.65 198.515C166.286 197.771 165.969 197.005 165.702 196.22C181.232 186.962 192.837 172.328 198.324 155.092L200.747 155.518C201.617 154.725 202.761 154.307 203.93 154.341C207.317 154.989 210.636 156.047 213.845 157.242C215.509 158.01 217.215 158.658 218.947 159.205C219.357 159.316 219.954 159.409 220.415 159.52H220.526C221.533 159.846 222.611 159.885 223.639 159.634C224.667 159.383 225.605 158.851 226.349 158.099C227.093 157.346 227.614 156.401 227.853 155.37C228.091 154.339 228.039 153.262 227.702 152.259C227.357 151.257 226.741 150.37 225.921 149.698C225.101 149.026 224.111 148.595 223.06 148.453L221.405 148.061C219.594 147.814 217.771 147.671 215.944 147.634C212.497 147.412 209.084 146.849 205.756 145.953C204.732 145.381 203.878 144.528 203.298 143.496L200.994 142.813C203.451 124.894 199.242 106.697 189.168 91.6755L191.182 89.8154C191.096 88.6464 191.48 87.4859 192.24 86.5899C194.859 84.3373 197.701 82.3491 200.687 80.6511C202.309 79.8233 203.881 78.9031 205.397 77.8949L206.643 76.8881C207.56 76.3188 208.298 75.5014 208.77 74.5305C209.242 73.5596 209.429 72.4749 209.311 71.4019C209.192 70.3289 208.772 69.3114 208.099 68.4672C207.426 67.623 206.528 66.9866 205.508 66.6316C204.49 66.277 203.391 66.2178 202.34 66.4609C201.29 66.704 200.329 67.2394 199.569 68.0054L198.307 69.0122C196.989 70.2625 195.744 71.5873 194.578 72.98C192.325 75.5569 189.833 77.9035 187.128 80.0026C186.037 80.447 184.843 80.577 183.681 80.378L181.522 81.9139C169.064 68.8587 152.28 60.7524 134.293 59.1312C134.293 58.2779 134.182 56.998 134.165 56.5969C133.201 55.9314 132.527 54.916 132.305 53.764C132.186 50.3181 132.404 46.8688 132.953 43.4649C133.32 41.673 133.576 39.8811 133.738 38.0636V36.357C133.909 33.0804 131.434 30.2731 128.149 30.0427L128.073 30ZM120.956 74.0808L119.25 103.886H119.122C119.036 105.729 117.953 107.299 116.289 108.187C114.625 109.074 112.654 108.81 111.169 107.726L86.7223 90.4041C94.5034 82.7615 104.265 77.4447 114.906 75.0535C116.903 74.6269 118.917 74.3026 120.939 74.0808H120.956ZM135.189 74.0808C148.031 75.6764 159.985 81.4446 169.235 90.498L145.019 107.709C143.526 108.903 141.478 109.142 139.745 108.323C138.013 107.504 136.904 105.763 136.878 103.852L135.189 74.0808ZM77.8481 101.616L100.204 121.566V121.694C101.595 122.906 102.201 124.792 101.791 126.592C101.382 128.392 99.9994 129.817 98.2331 130.304V130.389L69.5456 138.64C68.1261 125.716 71.0502 112.686 77.8566 101.608L77.8481 101.616ZM178.135 101.616C184.927 112.666 187.931 125.628 186.685 138.538L157.955 130.261V130.15C156.163 129.664 154.797 128.239 154.396 126.438C153.995 124.638 154.593 122.769 155.984 121.541L178.169 101.685L178.135 101.616ZM123.49 123.119H132.638L138.227 130.218L136.196 139.093L127.979 143.043L119.744 139.093L117.807 130.218L123.49 123.119ZM152.792 147.335C153.176 147.293 153.646 147.293 153.944 147.335L183.528 152.327C179.261 164.614 170.839 175.11 159.849 182.132L148.415 154.452C148.1 153.709 147.969 152.902 148.032 152.098C148.094 151.294 148.349 150.517 148.775 149.832C149.201 149.147 149.785 148.574 150.478 148.162C151.171 147.75 151.953 147.51 152.758 147.463L152.792 147.335ZM103.105 147.463C104.778 147.489 106.322 148.351 107.235 149.75C108.148 151.15 108.293 152.907 107.636 154.443V154.554L96.2706 182.013C85.3912 175.042 77.1313 164.674 72.7369 152.515L102.064 147.54C102.389 147.506 102.721 147.506 103.054 147.54L103.105 147.463ZM127.885 159.409C128.817 159.38 129.739 159.61 130.548 160.074C131.357 160.538 132.022 161.218 132.467 162.037H132.578L147.033 188.122L141.256 189.829C130.624 192.261 119.523 191.689 109.189 188.174L123.695 162.089C124.574 160.553 126.195 159.614 127.962 159.571L127.885 159.409Z"/></svg><svg x="1500" y="0" width="256" height="256" viewBox="0 0 256 256"><rect width="256" height="256" fill="#242938" rx="60"/><path fill="#fff" d="M84.7447 111.961C84.7447 114.395 85.0079 116.368 85.4684 117.816C85.9947 119.263 86.6526 120.842 87.5737 122.553C87.9026 123.079 88.0342 123.605 88.0342 124.066C88.0342 124.724 87.6395 125.382 86.7842 126.039L82.6395 128.803C82.0474 129.197 81.4553 129.395 80.929 129.395C80.2711 129.395 79.6132 129.066 78.9553 128.474C78.0342 127.487 77.2447 126.434 76.5869 125.382C75.929 124.263 75.2711 123.013 74.5474 121.5C69.4158 127.553 62.9684 130.579 55.2053 130.579C49.679 130.579 45.2711 129 42.0474 125.842C38.8237 122.684 37.179 118.474 37.179 113.211C37.179 107.618 39.1526 103.079 43.1658 99.6579C47.179 96.2368 52.5079 94.5263 59.2842 94.5263C61.5211 94.5263 63.8237 94.7237 66.2579 95.0526C68.6921 95.3816 71.1921 95.9079 73.8237 96.5V91.6974C73.8237 86.6974 72.7711 83.2105 70.7316 81.1711C68.6263 79.1316 65.0737 78.1447 60.0079 78.1447C57.7053 78.1447 55.3368 78.4079 52.9026 79C50.4684 79.5921 48.1 80.3158 45.7974 81.2368C44.7447 81.6974 43.9553 81.9605 43.4947 82.0921C43.0342 82.2237 42.7053 82.2895 42.4421 82.2895C41.5211 82.2895 41.0605 81.6316 41.0605 80.25V77.0263C41.0605 75.9737 41.1921 75.1842 41.5211 74.7237C41.85 74.2632 42.4421 73.8026 43.3632 73.3421C45.6658 72.1579 48.429 71.1711 51.6526 70.3816C54.8763 69.5263 58.2974 69.1316 61.9158 69.1316C69.7447 69.1316 75.4684 70.9079 79.1526 74.4605C82.7711 78.0132 84.6132 83.4079 84.6132 90.6447V111.961H84.7447ZM58.0342 121.961C60.2053 121.961 62.4421 121.566 64.8105 120.776C67.179 119.987 69.2842 118.539 71.0605 116.566C72.1132 115.316 72.9026 113.934 73.2974 112.355C73.6921 110.776 73.9553 108.868 73.9553 106.632V103.868C72.0474 103.408 70.0079 103.013 67.9026 102.75C65.7974 102.487 63.7579 102.355 61.7184 102.355C57.3105 102.355 54.0868 103.211 51.9158 104.987C49.7447 106.763 48.6921 109.263 48.6921 112.553C48.6921 115.645 49.4816 117.947 51.1263 119.526C52.7053 121.171 55.0079 121.961 58.0342 121.961ZM110.863 129.066C109.679 129.066 108.889 128.868 108.363 128.408C107.837 128.013 107.376 127.092 106.982 125.842L91.5211 74.9868C91.1263 73.6711 90.929 72.8158 90.929 72.3553C90.929 71.3026 91.4553 70.7105 92.5079 70.7105H98.9553C100.205 70.7105 101.061 70.9079 101.521 71.3684C102.047 71.7632 102.442 72.6842 102.837 73.9342L113.889 117.487L124.153 73.9342C124.482 72.6184 124.876 71.7632 125.403 71.3684C125.929 70.9737 126.85 70.7105 128.034 70.7105H133.297C134.547 70.7105 135.403 70.9079 135.929 71.3684C136.455 71.7632 136.916 72.6842 137.179 73.9342L147.574 118.013L158.955 73.9342C159.35 72.6184 159.811 71.7632 160.271 71.3684C160.797 70.9737 161.653 70.7105 162.837 70.7105H168.955C170.008 70.7105 170.6 71.2368 170.6 72.3553C170.6 72.6842 170.534 73.0132 170.468 73.4079C170.403 73.8026 170.271 74.3289 170.008 75.0526L154.153 125.908C153.758 127.224 153.297 128.079 152.771 128.474C152.245 128.868 151.389 129.132 150.271 129.132H144.613C143.363 129.132 142.508 128.934 141.982 128.474C141.455 128.013 140.995 127.158 140.732 125.842L130.534 83.4079L120.403 125.776C120.074 127.092 119.679 127.947 119.153 128.408C118.626 128.868 117.705 129.066 116.521 129.066H110.863ZM195.403 130.842C191.982 130.842 188.561 130.447 185.271 129.658C181.982 128.868 179.416 128.013 177.705 127.026C176.653 126.434 175.929 125.776 175.666 125.184C175.403 124.592 175.271 123.934 175.271 123.342V119.987C175.271 118.605 175.797 117.947 176.784 117.947C177.179 117.947 177.574 118.013 177.968 118.145C178.363 118.276 178.955 118.539 179.613 118.803C181.85 119.789 184.284 120.579 186.85 121.105C189.482 121.632 192.047 121.895 194.679 121.895C198.824 121.895 202.047 121.171 204.284 119.724C206.521 118.276 207.705 116.171 207.705 113.474C207.705 111.632 207.113 110.118 205.929 108.868C204.745 107.618 202.508 106.5 199.284 105.447L189.745 102.487C184.942 100.974 181.389 98.7368 179.218 95.7763C177.047 92.8816 175.929 89.6579 175.929 86.2368C175.929 83.4737 176.521 81.0395 177.705 78.9342C178.889 76.8289 180.468 74.9868 182.442 73.5395C184.416 72.0263 186.653 70.9079 189.284 70.1184C191.916 69.3289 194.679 69 197.574 69C199.021 69 200.534 69.0658 201.982 69.2632C203.495 69.4605 204.876 69.7237 206.258 69.9868C207.574 70.3158 208.824 70.6447 210.008 71.0395C211.192 71.4342 212.113 71.8289 212.771 72.2237C213.692 72.75 214.35 73.2763 214.745 73.8684C215.139 74.3947 215.337 75.1184 215.337 76.0395V79.1316C215.337 80.5132 214.811 81.2368 213.824 81.2368C213.297 81.2368 212.442 80.9737 211.324 80.4474C207.574 78.7368 203.363 77.8816 198.692 77.8816C194.942 77.8816 191.982 78.4737 189.942 79.7237C187.903 80.9737 186.85 82.8816 186.85 85.5789C186.85 87.4211 187.508 89 188.824 90.25C190.139 91.5 192.574 92.75 196.061 93.8684L205.403 96.8289C210.139 98.3421 213.561 100.447 215.6 103.145C217.639 105.842 218.626 108.934 218.626 112.355C218.626 115.184 218.034 117.75 216.916 119.987C215.732 122.224 214.153 124.197 212.113 125.776C210.074 127.421 207.639 128.605 204.811 129.461C201.85 130.382 198.758 130.842 195.403 130.842Z"/><path fill="#F90" fill-rule="evenodd" d="M207.837 162.816C186.192 178.803 154.745 187.29 127.705 187.29C89.8105 187.29 55.6658 173.276 29.8763 149.987C27.8369 148.145 29.679 145.645 32.1132 147.092C60.0079 163.276 94.4158 173.079 130.008 173.079C154.021 173.079 180.403 168.079 204.679 157.816C208.297 156.171 211.389 160.184 207.837 162.816Z" clip-rule="evenodd"/><path fill="#F90" fill-rule="evenodd" d="M216.85 152.553C214.087 149 198.561 150.842 191.521 151.697C189.416 151.961 189.087 150.118 190.995 148.737C203.363 140.053 223.692 142.553 226.061 145.447C228.429 148.408 225.403 168.737 213.824 178.474C212.047 179.987 210.337 179.197 211.126 177.224C213.758 170.711 219.613 156.039 216.85 152.553Z" clip-rule="evenodd"/></svg><svg x="1800" y="0" width="256" height="256" viewBox="0 0 256 256"><rect width="256" height="256" fill="#242938" rx="60"/><g clip-path="url(#i6_clip0_137_129)"><path fill="#D33833" fill-rule="evenodd" d="M198.402 124.423C198.402 164.029 167.012 196.137 128.29 196.137C89.5687 196.137 58.1785 164.029 58.1785 124.423C58.1785 84.8157 89.5687 52.7075 128.29 52.7075C167.012 52.7075 198.402 84.8157 198.402 124.423Z" clip-rule="evenodd"/><path fill="#EF3D3A" d="M61.0356 142.184C61.0356 142.184 55.96 67.3982 124.871 65.2612L120.063 57.2484L82.6703 69.8021L71.9863 82.0881L62.6382 99.9839L57.2959 120.817L58.8985 134.706"/><path fill="#231F20" d="M80.2695 75.5008C67.9682 88.0873 60.356 105.466 60.356 124.691C60.356 143.912 67.9682 161.292 80.2695 173.877C92.5767 186.461 109.538 194.226 128.289 194.226C147.041 194.226 164.003 186.461 176.309 173.877C188.61 161.292 196.224 143.912 196.224 124.691C196.224 105.466 188.61 88.0873 176.309 75.5008C164.003 62.9191 147.041 55.1538 128.289 55.1522C109.538 55.1538 92.5767 62.9191 80.2695 75.5008ZM77.1557 176.921C64.0823 163.551 56 145.073 56 124.691C56 104.305 64.0823 85.8293 77.1557 72.4583C90.226 59.0849 108.319 50.7957 128.289 50.7981C148.26 50.7957 166.354 59.0849 179.422 72.4583C192.497 85.8293 200.58 104.307 200.579 124.691C200.58 145.073 192.497 163.551 179.422 176.921C166.354 190.293 148.26 198.582 128.289 198.582C108.319 198.582 90.226 190.293 77.1557 176.921"/><path fill="#F0D6B7" fill-rule="evenodd" d="M157.804 124.821L147.119 126.423L132.696 128.026L123.347 128.292L114.267 128.026L107.322 125.889L101.178 119.212L96.3707 105.59L95.3024 102.651L88.8922 100.515L85.1528 94.3718L82.4819 85.5577L85.4204 77.8117L92.3643 75.4079L97.9733 78.0793L100.645 83.9551L103.85 83.4207L104.918 82.0858L103.85 75.9423L103.582 68.1963L105.185 57.5128L105.122 51.4103L109.993 43.6242L118.54 37.4808L133.497 31.0705L150.057 33.4744L164.48 43.891L171.158 54.5745L175.431 62.3205L176.499 81.5513L173.294 98.1114L167.418 112.801L161.809 120.547" clip-rule="evenodd"/><path fill="#335061" fill-rule="evenodd" d="M148.722 171.027L110.527 172.63V179.04L113.732 201.476L112.13 203.346L85.4206 194.264L83.5504 191.059L80.8796 160.878L74.7373 142.716L73.4014 138.442L94.7684 123.752L101.446 121.081L107.322 128.292L112.397 132.833L118.273 134.703L120.944 135.504L124.149 149.393L126.553 152.331L132.696 150.194L128.422 158.474L151.66 169.425L148.722 171.027" clip-rule="evenodd"/><path fill="#6D6B6D" fill-rule="evenodd" d="M85.4205 77.8117L92.3644 75.4078L97.9734 78.0793L100.645 83.9551L103.85 83.4206L104.651 80.2155L103.049 74.0729L104.651 59.3822L103.315 51.3693L108.123 45.7604L118.54 37.4807L115.602 33.4743L100.911 40.6858L94.7682 45.4935L91.2961 52.9719L85.9541 60.1834L84.3516 68.7307L85.4205 77.8117Z" clip-rule="evenodd"/><path fill="#DCD9D8" fill-rule="evenodd" d="M96.3709 52.7051C96.3709 52.7051 100.377 42.8229 116.403 38.0152C132.429 33.2075 117.204 34.5424 117.204 34.5424L99.8437 41.2203L93.1658 47.8974L90.2283 53.2396L96.3709 52.7051Z" clip-rule="evenodd"/><path fill="#DCD9D8" fill-rule="evenodd" d="M88.358 75.9422C88.358 75.9422 82.749 57.2451 104.117 54.5745L103.315 51.3693L88.6256 54.8421L84.3516 68.7307L85.4205 77.8116L88.358 75.9422Z" clip-rule="evenodd"/><path fill="#F7E4CD" fill-rule="evenodd" d="M96.905 100.782L100.402 97.3934C100.402 97.3934 101.981 97.5769 102.247 99.4463C102.514 101.317 103.315 118.143 114.8 127.225C115.848 128.054 106.254 125.889 106.254 125.889L97.7063 112.534" clip-rule="evenodd"/><path fill="#F7E4CD" fill-rule="evenodd" d="M146.052 95.7075C146.052 95.7075 146.675 87.6114 148.855 88.234C151.035 88.8566 151.035 91.0368 151.035 91.0368C151.035 91.0368 145.74 94.4623 146.052 95.7075" clip-rule="evenodd"/><path fill="#F7E4CD" d="M168.22 66.0601C168.22 66.0601 163.817 66.9895 163.412 70.8678C163.006 74.7468 168.22 71.669 169.021 71.4022"/><path fill="#F7E4CD" d="M135.901 66.3277C135.901 66.3277 130.025 67.129 130.025 70.8678C130.025 74.6073 136.703 74.3405 138.572 72.738"/><path fill="#F7E4CD" fill-rule="evenodd" d="M99.5759 83.6883C99.5759 83.6883 89.4259 77.5448 88.358 83.4215C87.2897 89.2973 84.8852 93.5713 89.9605 99.7139L86.4884 98.6458L83.2833 90.3662L82.2153 82.3533L88.358 75.9423L95.3025 76.4767L99.3089 79.6819L99.5759 83.6883Z" clip-rule="evenodd"/><path fill="#F7E4CD" fill-rule="evenodd" d="M104.384 66.8614C104.384 66.8614 108.924 43.3574 131.895 38.8165C150.806 35.0785 160.74 39.6178 164.48 43.891C164.48 43.891 147.653 23.8598 131.627 30.0024C115.602 36.1458 103.85 47.3638 104.117 54.5745C104.572 66.8566 104.384 66.8614 104.384 66.8614Z" clip-rule="evenodd"/><path fill="#F7E4CD" fill-rule="evenodd" d="M166.35 46.5617C166.35 46.5617 158.605 46.2949 158.337 53.2396C158.337 53.2396 158.337 54.3077 158.871 55.3758C158.871 55.3758 165.015 48.4311 168.754 52.1707" clip-rule="evenodd"/><path fill="#F7E4CD" fill-rule="evenodd" d="M132.433 56.0994C132.433 56.0994 131.1 45.4399 122.012 51.637C116.136 55.6434 116.671 61.2524 117.738 62.3205C118.807 63.3894 118.516 65.5409 119.33 64.0641C120.142 62.5873 119.875 57.7796 122.813 56.4447C125.751 55.109 130.568 53.617 132.433 56.0994Z" clip-rule="evenodd"/><path fill="#49728B" fill-rule="evenodd" d="M107.322 128.292L82.2155 139.51C82.2155 139.51 92.6321 180.91 87.2898 193.731L83.5504 192.396L83.2834 176.637L76.3398 146.723L73.4014 138.442L99.576 120.815L107.322 128.292Z" clip-rule="evenodd"/><path fill="#49728B" fill-rule="evenodd" d="M109.903 151.191L113.465 155.537V171.562H109.191C109.191 171.562 108.658 160.345 108.658 159.009C108.658 157.673 109.191 152.865 109.191 152.865" clip-rule="evenodd"/><path fill="#49728B" fill-rule="evenodd" d="M109.993 173.966L97.9734 174.5L101.446 176.904L109.993 178.239" clip-rule="evenodd"/><path fill="#335061" fill-rule="evenodd" d="M151.126 171.295L161.008 171.028L163.412 195.601L153.262 196.936L151.126 171.295" clip-rule="evenodd"/><path fill="#335061" fill-rule="evenodd" d="M153.796 171.295L168.754 170.494C168.754 170.494 174.897 155.002 174.897 154.201C174.897 153.4 180.239 131.765 180.239 131.765L168.219 119.212L165.816 117.075L159.405 123.486V148.325L153.796 171.295" clip-rule="evenodd"/><path fill="#49728B" fill-rule="evenodd" d="M160.473 169.425L151.126 171.295L152.461 178.774C155.933 180.377 161.809 176.103 161.809 176.103" clip-rule="evenodd"/><path fill="#49728B" fill-rule="evenodd" d="M160.741 122.684L179.438 136.573L179.972 130.163L165.816 117.075L160.741 122.684Z" clip-rule="evenodd"/><path fill="#fff" fill-rule="evenodd" d="M119.262 223.915L113.732 201.476L110.982 184.919L110.527 172.63L135.555 171.297L151.126 171.295L149.71 199.342L152.114 220.977L151.847 224.983L131.548 226.586L119.262 223.915" clip-rule="evenodd"/><path fill="#DCD9D8" fill-rule="evenodd" d="M147.653 171.028C147.653 171.028 146.318 198.806 150.325 218.57C150.325 218.57 142.312 223.646 130.559 224.981L152.995 224.179L155.666 222.577L152.461 178.774L151.66 169.425" clip-rule="evenodd"/><path fill="#fff" fill-rule="evenodd" d="M163.867 193.466L174.284 190.528L194.048 189.46L196.986 180.379L191.644 164.62L185.502 163.819L176.954 166.49L168.754 170.494L164.401 169.695L161.008 171.028" clip-rule="evenodd"/><path fill="#DCD9D8" fill-rule="evenodd" d="M163.679 188.122C163.679 188.122 170.623 184.917 171.692 185.184L168.754 170.494L172.226 169.159C172.226 169.159 174.63 183.047 174.63 184.65C174.63 184.65 189.587 185.451 190.922 185.451C190.922 185.451 194.127 179.308 193.326 172.897L196.264 181.445L196.531 186.252L192.258 192.663L187.45 193.731L179.438 193.464L176.767 189.992L167.418 191.327L164.48 192.396" clip-rule="evenodd"/><path fill="#fff" d="M153.183 169.161L147.307 154.204L141.164 145.389C141.164 145.389 142.499 141.65 144.369 141.65C146.239 141.65 150.512 141.65 150.512 141.65L156.388 143.787L155.854 153.669L153.183 169.161Z"/><path fill="#DCD9D8" fill-rule="evenodd" d="M154.331 164.083C154.331 164.083 146.852 149.661 146.852 147.524C146.852 147.524 148.187 144.319 150.057 145.12C151.927 145.921 155.934 148.058 155.934 148.058V142.983L146.852 141.113L140.709 141.914L151.126 166.487L153.262 166.755" clip-rule="evenodd"/><path fill="#fff" d="M121.666 128.83L114.267 128.026L107.322 125.889V128.292L110.715 132.034L121.399 136.842"/><path fill="#DCD9D8" fill-rule="evenodd" d="M109.727 129.631C109.727 129.631 118.007 133.103 120.678 132.302L120.944 135.504L113.466 133.905L108.925 130.7L109.727 129.631Z" clip-rule="evenodd"/><path fill="#D33833" fill-rule="evenodd" d="M163.838 142.559C159.306 142.426 155.211 141.888 151.627 140.877C151.87 139.407 151.414 137.965 151.78 136.906C152.78 136.187 154.454 136.198 155.965 136.029C154.659 135.387 152.824 135.133 151.316 135.504C151.281 134.484 150.824 133.852 150.546 133.054C153.094 132.144 159.11 126.182 162.493 128.156C164.106 129.095 164.791 134.459 164.916 137.067C165.02 139.231 164.719 141.413 163.838 142.559Z" clip-rule="evenodd"/><path stroke="#D33833" stroke-width="2.5" d="M163.838 142.559C159.306 142.426 155.211 141.888 151.627 140.877C151.87 139.407 151.414 137.965 151.78 136.906C152.78 136.187 154.454 136.198 155.965 136.029C154.659 135.387 152.824 135.133 151.316 135.504C151.281 134.484 150.824 133.852 150.546 133.054C153.094 132.144 159.11 126.182 162.493 128.156C164.106 129.095 164.791 134.459 164.916 137.067C165.02 139.231 164.719 141.413 163.838 142.559Z"/><path fill="#D33833" fill-rule="evenodd" d="M142.166 135.151C142.154 135.494 142.139 135.839 142.126 136.185C140.711 137.115 138.426 137.103 136.873 137.885C139.163 137.985 140.965 138.536 142.524 139.313C142.49 140.177 142.457 141.04 142.423 141.904C139.829 143.679 137.46 146.324 134.406 147.989C132.962 148.776 127.895 150.803 126.359 150.445C125.489 150.243 125.411 149.164 125.064 148.148C124.323 145.97 122.619 142.505 122.47 139.228C122.281 135.088 121.863 128.151 126.324 129.003C129.923 129.69 134.109 131.348 136.895 132.87C138.598 133.801 139.583 134.952 142.166 135.151" clip-rule="evenodd"/><path stroke="#D33833" stroke-width="2.5" d="M142.166 135.151C142.154 135.494 142.139 135.839 142.126 136.185C140.711 137.115 138.426 137.103 136.873 137.885C139.163 137.985 140.965 138.536 142.524 139.313C142.49 140.177 142.457 141.04 142.423 141.904C139.829 143.679 137.46 146.324 134.406 147.989C132.962 148.776 127.895 150.803 126.359 150.445C125.489 150.243 125.411 149.164 125.064 148.148C124.323 145.97 122.619 142.505 122.47 139.228C122.281 135.088 121.863 128.151 126.324 129.003C129.923 129.69 134.109 131.348 136.895 132.87C138.598 133.801 139.583 134.952 142.166 135.151V135.151Z"/><path fill="#D33833" fill-rule="evenodd" d="M144.742 140.09C144.346 137.835 143.889 137.192 144.066 135.224C150.079 131.215 151.208 142.111 144.742 140.09Z" clip-rule="evenodd"/><path stroke="#D33833" stroke-width="2.5" d="M144.742 140.09C144.346 137.835 143.889 137.192 144.066 135.224C150.079 131.215 151.208 142.111 144.742 140.09Z"/><path fill="#EF3D3A" fill-rule="evenodd" d="M153.45 141.917C153.45 141.917 151.579 139.246 152.915 138.445C154.251 137.643 155.587 138.446 156.388 137.11C157.189 135.774 156.388 134.973 156.655 133.37C156.921 131.768 158.258 131.5 159.593 131.233C160.928 130.966 164.668 130.432 165.202 131.768L163.599 126.96L160.394 125.892L150.244 131.768L149.71 134.706V140.582" clip-rule="evenodd"/><path fill="#EF3D3A" fill-rule="evenodd" d="M125.405 150.732C125.084 146.563 124.745 142.401 124.367 138.236C123.801 132.018 125.86 133.103 131.25 133.103C132.073 133.103 136.319 134.085 136.623 134.706C138.079 137.681 134.187 137.02 138.301 139.264C141.773 141.157 147.908 138.114 146.505 133.905C145.72 132.969 142.414 133.613 141.228 132.998C139.142 131.917 137.055 130.835 134.969 129.753C132.314 128.376 126.178 126.368 123.348 128.292C116.176 133.17 123.8 145.357 126.359 150.445" clip-rule="evenodd"/><path fill="#231F20" fill-rule="evenodd" d="M132.433 56.0993C125.153 54.4038 121.536 59.1458 119.329 64.0641C117.359 63.5865 118.143 60.907 118.641 59.5417C119.944 55.9583 125.195 51.1883 129.486 51.8349C131.332 52.113 133.831 53.8013 132.433 56.0993" clip-rule="evenodd"/><path fill="#231F20" fill-rule="evenodd" d="M167.903 64.3894C168.018 64.3942 168.134 64.3982 168.248 64.403C169.894 67.8205 171.317 71.4407 173.393 74.4575C172.002 77.6955 162.865 80.5609 163.006 74.7468C164.982 73.883 168.394 74.5705 170.145 73.4672C169.132 70.6875 167.671 68.3213 167.903 64.3894" clip-rule="evenodd"/><path fill="#231F20" fill-rule="evenodd" d="M136.16 64.4783C137.721 67.3397 138.229 70.3461 140.448 72.5088C141.447 73.4823 143.39 74.669 142.427 77.3766C142.202 78.0152 140.557 79.4391 139.607 79.7187C136.139 80.7428 128.056 79.9302 130.793 75.6057C133.662 75.7395 137.518 77.4687 139.662 75.3862C138.015 72.754 135.08 67.5464 136.16 64.4783" clip-rule="evenodd"/><path fill="#231F20" fill-rule="evenodd" d="M166.601 93.5601C161.378 96.915 155.555 100.563 146.997 99.7171C145.168 98.1274 144.471 94.5897 146.248 92.2532C147.172 93.8429 146.591 96.7668 149.168 97.2067C154.024 98.0377 159.676 94.2364 163.168 92.9078C165.334 89.2564 162.982 87.9134 161.031 85.5633C157.036 80.7484 151.678 74.7804 151.873 67.5721C153.487 66.4014 153.627 69.359 153.858 69.8974C155.944 74.7788 161.193 81.0216 165.024 85.1995C165.965 86.2284 167.514 87.2155 167.686 87.8958C168.183 89.8742 166.393 92.2444 166.601 93.5601" clip-rule="evenodd"/><path fill="#231F20" fill-rule="evenodd" d="M97.7481 90.028C96.1111 89.0937 95.7214 84.9784 93.7995 84.8614C91.053 84.6947 91.5538 90.2003 91.5648 93.4199C89.6742 91.7035 89.3418 86.4191 90.7306 83.7051C89.1478 82.9279 88.441 84.5625 87.563 85.1386C88.6914 76.9415 99.5541 81.3365 97.7481 90.028Z" clip-rule="evenodd"/><path fill="#231F20" fill-rule="evenodd" d="M169.926 96.9735C167.495 101.601 164.056 106.697 156.922 106.845C156.777 105.351 156.666 103.077 156.93 102.177C162.384 101.653 165.751 98.8774 169.926 96.9735Z" clip-rule="evenodd"/><path fill="#231F20" fill-rule="evenodd" d="M135.749 99.9736C140.299 102.366 148.661 102.623 154.845 102.442C155.177 103.797 155.169 105.471 155.182 107.123C147.232 107.52 137.833 105.553 135.749 99.9736Z" clip-rule="evenodd"/><path fill="#231F20" fill-rule="evenodd" d="M134.884 104.435C138.031 112.335 148.845 111.425 157.964 111.208C157.563 112.233 156.692 113.445 155.611 113.883C152.688 115.072 144.628 115.974 140.571 113.82C137.999 112.452 136.345 109.361 134.936 107.55C134.255 106.675 130.865 104.44 134.884 104.435" clip-rule="evenodd"/><path fill="#81B0C4" fill-rule="evenodd" d="M166.221 148.011C162.529 154.335 158.996 160.83 154.615 166.408C156.452 161.008 157.238 151.97 157.515 145.08C161.357 143.282 164.648 145.485 166.221 148.011Z" clip-rule="evenodd"/><path fill="#231F20" fill-rule="evenodd" d="M186.09 170.74C181.956 171.567 179.051 175.585 175.019 175.327C177.235 172.203 181.119 170.885 186.09 170.74Z" clip-rule="evenodd"/><path fill="#231F20" fill-rule="evenodd" d="M187.913 177.209C184.544 177.565 180.586 178.111 177.169 177.829C178.787 175.358 185.02 176.211 187.913 177.209Z" clip-rule="evenodd"/><path fill="#231F20" fill-rule="evenodd" d="M189.081 182.787C185.294 182.869 180.587 182.793 176.988 182.491C179.117 180.204 186.625 181.643 189.081 182.787Z" clip-rule="evenodd"/><path fill="#DCD9D8" fill-rule="evenodd" d="M159.096 198.05C159.639 202.806 161.525 207.625 161.288 212.833C159.195 213.539 157.992 214.157 155.187 214.153C154.989 209.727 154.397 202.96 154.574 198.74C155.953 198.832 157.988 197.755 159.096 198.05Z" clip-rule="evenodd"/><path fill="#F0D6B7" fill-rule="evenodd" d="M152.991 127.961C151.09 129.202 149.47 130.752 147.644 132.077C143.595 132.277 141.385 131.796 138.409 129.471C138.458 129.284 138.757 129.368 138.768 129.139C143.103 131.071 148.614 128.352 152.991 127.961" clip-rule="evenodd"/><path fill="#81B0C4" fill-rule="evenodd" d="M130.234 157.51C131.425 152.349 136.092 149.676 140.33 146.834C144.704 152.386 147.365 159.525 150.294 166.414C143.373 164.328 136.3 160.942 130.234 157.51Z" clip-rule="evenodd"/><path fill="#231F20" fill-rule="evenodd" d="M154.574 198.74C154.397 202.96 154.989 209.727 155.187 214.153C157.992 214.157 159.195 213.539 161.288 212.833C161.525 207.625 159.639 202.806 159.096 198.05C157.988 197.755 155.953 198.832 154.574 198.74V198.74ZM110.892 174.743C112.742 191.749 115.422 206.044 120.336 221.103C131.242 224.414 144.39 224.703 154.03 221.715C152.26 213.215 153.034 202.868 151.999 193.798C151.219 186.981 151.617 180.122 150.548 173.167C138.867 170.737 122.356 172.599 110.892 174.743V174.743ZM153.31 173.273C153.211 180.577 153.637 187.781 154.195 195.094C156.999 194.673 158.902 194.392 161.508 193.821C160.662 186.781 160.766 178.859 159.042 172.631C157.05 172.65 155.296 172.608 153.31 173.273V173.273ZM167.537 172.096C166.206 171.791 164.656 172.084 163.385 172.109C163.982 178.063 165.433 184.632 165.943 190.882C167.944 190.944 169.013 190 170.659 189.683C170.747 184.197 170.179 176.639 167.537 172.096V172.096ZM189.078 191.778C193.249 190.765 195.872 185.657 194.705 180.411C193.922 176.885 192.528 170.247 191.036 167.991C189.933 166.323 186.944 164.139 184.557 165.667C180.674 168.154 173.833 168.876 171.002 171.885C172.421 176.613 172.862 183.107 173.448 189.097C178.299 189.399 184.268 187.762 188.302 189.499C185.485 190.412 181.831 190.419 179.397 191.749C181.386 192.709 186.042 192.515 189.078 191.778V191.778ZM150.294 166.414C147.365 159.525 144.704 152.386 140.33 146.834C136.092 149.676 131.425 152.349 130.234 157.51C136.3 160.942 143.373 164.328 150.294 166.414ZM157.515 145.08C157.238 151.97 156.452 161.008 154.615 166.408C158.996 160.83 162.529 154.335 166.221 148.011C164.647 145.485 161.357 143.282 157.515 145.08V145.08ZM149.329 142.171C147.67 141.993 146.261 144.079 144.103 143.177C143.609 143.724 143.159 144.316 142.655 144.849C147.421 150.593 149.587 158.742 153.268 165.492C155.244 159.008 155.016 151.904 155.451 144.828C152.737 145 151.231 142.373 149.329 142.171ZM144.066 135.224C143.889 137.191 144.346 137.835 144.742 140.09C151.208 142.111 150.079 131.215 144.066 135.224ZM136.895 132.87C134.109 131.348 129.923 129.69 126.324 129.003C121.863 128.15 122.281 135.088 122.47 139.228C122.619 142.505 124.323 145.97 125.064 148.148C125.411 149.164 125.489 150.243 126.358 150.445C127.895 150.803 132.962 148.776 134.406 147.989C137.46 146.324 139.829 143.679 142.423 141.904C142.457 141.04 142.49 140.177 142.524 139.313C140.965 138.536 139.163 137.985 136.873 137.885C138.426 137.103 140.711 137.115 142.126 136.185C142.139 135.839 142.154 135.494 142.166 135.151C139.582 134.952 138.598 133.801 136.895 132.87V132.87ZM110.281 128.036C107.969 130.384 116.767 133.584 119.569 133.756C119.553 132.271 120.415 130.87 120.242 129.804C116.915 129.22 112.542 129.606 110.281 128.036V128.036ZM138.768 129.139C138.757 129.368 138.458 129.284 138.409 129.471C141.385 131.796 143.594 132.277 147.644 132.077C149.47 130.752 151.09 129.202 152.991 127.961C148.614 128.352 143.103 131.071 138.768 129.139V129.139ZM164.916 137.067C164.791 134.459 164.106 129.095 162.494 128.156C159.11 126.181 153.094 132.144 150.546 133.054C150.824 133.852 151.281 134.484 151.316 135.504C152.824 135.133 154.659 135.387 155.965 136.029C154.454 136.198 152.78 136.187 151.78 136.906C151.414 137.965 151.87 139.407 151.627 140.877C155.211 141.888 159.306 142.426 163.838 142.559C164.719 141.413 165.02 139.231 164.916 137.067V137.067ZM106.388 130.307C105.662 129.789 100.75 123.397 100.077 123.663C91.1875 127.168 82.8757 133.23 75.4482 138.963C82.5299 154.159 85.3885 172.776 85.8937 190.719C94.006 194.514 101.131 199.983 112.14 200.554C110.866 191.542 109.703 183.501 108.98 175.015C106.214 173.849 102.246 175.068 99.6573 174.654C99.6353 171.534 103.61 173.288 103.942 171.19C104.191 169.603 101.754 169.483 102.548 166.985C104.571 167.72 105.634 169.345 107.792 169.955C109.764 165.641 107.765 158.008 108.049 154.402C108.103 153.725 108.387 150.652 109.903 151.191C111.246 151.668 109.827 159.365 109.974 162.778C110.108 165.922 109.594 168.965 110.867 170.938C121.505 169.49 132.314 168.555 143.824 168.239C141.292 167.152 138.284 166.124 134.986 164.265C133.198 163.257 127.562 161.16 127.046 159.462C126.223 156.756 129.206 155.315 129.716 152.995C124.347 155.924 123.299 150.188 122.029 146.125C120.878 142.445 120.223 139.696 119.941 137.573C115.315 135.368 110.37 133.135 106.388 130.307V130.307ZM160.218 124.436C167.624 120.845 168.959 137.858 166.056 143.339C166.505 144.974 168.048 145.599 168.678 147.069C164.545 154.473 159.954 161.384 155.737 168.7C158.874 166.748 163.355 168.351 167.046 166.889C168.396 166.356 169.373 163.267 170.394 160.796C173.204 153.997 176.155 145.425 177.467 138.937C177.764 137.459 178.571 134.238 178.39 132.922C178.067 130.566 174.871 128.82 173.245 127.363C170.25 124.672 168.364 122.304 165.239 119.788C163.973 121.659 161.254 122.915 160.218 124.436V124.436ZM89.4503 58.7564C85.9212 62.6394 86.6599 69.9151 87.0872 75.0913C93.4661 71.0785 101.933 75.4086 101.853 82.234C104.898 82.153 102.991 78.4303 102.44 76.032C100.639 68.1987 105.473 59.6883 102.659 52.5248C97.1955 52.9391 92.707 55.1707 89.4503 58.7564V58.7564ZM114.702 36.2195C106.712 38.484 96.4731 44.2893 93.1901 51.4663C95.7322 51.0969 97.4969 49.8149 100.005 49.6562C100.952 49.5945 102.194 50.0537 103.283 49.7828C105.454 49.2444 107.286 44.3774 108.924 42.5665C110.52 40.7981 112.439 40.0425 113.752 38.4303C114.595 38.0232 115.843 38.0513 115.89 36.7844C115.525 36.3934 115.14 36.0953 114.702 36.2195V36.2195ZM156.291 38.3493C147.998 33.6707 133.962 30.1514 125.141 34.5489C118.024 38.0977 108.402 43.9695 105.122 51.4102C108.187 58.5905 104.215 65.1699 103.961 72.4599C103.826 76.3389 105.787 79.7252 105.938 83.9479C104.889 85.6779 101.685 85.891 99.4679 85.7724C98.7214 82.0368 97.4146 77.8381 93.5679 77.4167C88.1248 76.8213 84.1449 81.3261 83.8977 86.0336C83.605 91.5697 88.1498 100.745 94.5913 100.108C97.0797 99.8622 97.691 97.3678 100.402 97.3934C101.872 100.325 98.1355 101.246 97.7511 103.343C97.651 103.885 98.061 106.002 98.2994 106.994C99.4695 111.829 102.078 118.085 104.645 121.765C107.903 126.433 114.305 127.137 121.192 127.595C122.422 124.945 126.953 125.163 129.906 125.856C126.367 124.454 123.078 121.057 120.351 118.05C117.22 114.599 114.048 110.898 113.887 106.389C119.805 114.599 124.694 121.768 135.455 125.38C143.598 128.111 153.107 124.128 159.364 119.735C161.96 117.909 163.51 115.011 165.355 112.359C172.26 102.427 175.481 88.2508 174.773 74.5104C174.481 68.8437 174.494 63.1963 172.593 59.3838C170.606 55.3974 163.885 51.8309 159.95 55.4367C159.221 51.5601 163.222 49.1627 167.921 50.5577C164.57 46.2332 161.054 41.0368 156.291 38.3493V38.3493ZM171.74 166.208C178.22 162.986 190.328 157.537 194.39 166.22C195.889 169.42 197.648 174.83 198.425 178.134C199.522 182.795 197.235 192.591 192.445 194.156C188.213 195.537 183.276 195.453 178.179 194.429C177.578 193.93 176.91 193.059 176.443 192.152C172.804 192.011 169.396 192.348 166.521 193.844C166.793 196.535 164.973 196.967 163.266 197.522C162.001 202.538 165.797 209.09 164.889 213.664C164.24 216.923 160.231 217.427 157.284 218.037C157.187 219.848 157.413 221.36 157.614 222.892C156.94 225.375 153.917 226.788 151.054 227.135C141.631 228.268 127.325 228.777 118.262 225.518C115.733 219.314 113.741 211.769 111.634 204.686C102.795 205.63 95.6461 200.872 88.9066 197.755C86.5732 196.673 83.3453 196.077 82.4736 194.22C81.6284 192.421 81.9743 188.975 81.7646 185.72C81.2309 177.405 80.774 169.385 78.5782 160.871C77.5923 157.051 75.8739 153.679 74.6751 149.998C73.5671 146.587 71.6312 142.37 71.1263 138.968C70.3776 133.925 75.1258 133.645 78.1619 131.46C82.8554 128.081 86.5394 126.212 91.6225 123.163C93.128 122.26 97.6682 119.974 98.1846 118.921C99.2112 116.833 96.4224 113.89 95.6768 112.254C94.4974 109.667 93.8824 107.469 93.7134 104.916C89.4494 104.242 86.217 101.704 84.2645 98.8429C81.0347 94.1074 78.7948 85.3461 81.5893 78.6819C81.8084 78.157 82.9014 77.125 83.0626 76.3189C83.3806 74.7316 82.4641 72.621 82.4071 70.9327C82.1135 62.2708 83.8727 54.8077 89.7038 52.1955C92.0711 42.7652 100.544 39.6298 108.526 34.9431C111.51 33.1915 114.799 32.0721 118.196 30.8221C130.382 26.3373 149.079 27.1819 159.193 34.8309C163.481 38.0745 170.336 44.9231 172.788 49.8814C179.264 62.9719 178.804 84.8493 174.275 100.773C173.666 102.911 172.783 106.054 171.55 108.622C170.69 110.415 168.018 114.003 168.342 115.587C168.676 117.224 174.435 121.596 175.67 122.787C177.893 124.932 182.118 127.779 182.46 130.486C182.828 133.366 181.191 137.307 180.361 140.087C177.589 149.363 174.884 157.938 171.74 166.208" clip-rule="evenodd"/><path fill="#F7E4CD" fill-rule="evenodd" d="M128.509 101.994C128.86 101.526 130.793 100.816 133.497 102.118C133.497 102.118 130.292 102.652 130.559 107.996L129.223 107.728C129.223 107.728 127.843 102.883 128.509 101.994" clip-rule="evenodd"/><path fill="#1D1919" fill-rule="evenodd" d="M151.927 147.925C151.927 148.736 151.269 149.393 150.458 149.393C149.647 149.393 148.989 148.736 148.989 147.925C148.989 147.114 149.647 146.455 150.458 146.455C151.269 146.455 151.927 147.114 151.927 147.925Z" clip-rule="evenodd"/><path fill="#1D1919" fill-rule="evenodd" d="M153.396 154.736C153.396 155.547 152.738 156.204 151.926 156.204C151.115 156.204 150.458 155.547 150.458 154.736C150.458 153.925 151.115 153.266 151.926 153.266C152.738 153.266 153.396 153.925 153.396 154.736Z" clip-rule="evenodd"/></g><defs><clipPath id="i6_clip0_137_129"><rect width="144.872" height="200" fill="#fff" transform="translate(56 28)"/></clipPath></defs></svg><svg x="2100" y="0" width="256" height="256" viewBox="0 0 256 256">
<rect width="256" height="256" rx="60" fill="#242938"/>
<path d="M53.3286 26.9992C52.9819 27.8175 52.6536 28.8761 52.3484 30.1524L52.1239 31.1502C52.0506 31.4961 51.9787 31.8553 51.9085 32.2275L51.7027 33.3822L51.5068 34.6123L51.3213 35.9157L51.1466 37.2901L50.9833 38.7336L50.8317 40.2441C50.8074 40.5013 50.7836 40.7612 50.7604 41.0237L50.6271 42.6306L50.5067 44.2992L50.3996 46.0273C50.3828 46.3202 50.3667 46.6154 50.3511 46.913L61.0553 52.0937C60.8933 45.8444 61.0945 39.9351 61.6575 34.5058L61.7679 33.5381L61.6916 34.4247L61.5964 35.8905L61.5616 36.5898L61.5029 38.1853L61.481 39.0826L61.4571 41.0791L61.4604 42.7553L61.4856 44.5869L61.5163 45.8953L61.5854 47.9902L61.6484 49.4758L61.7261 51.0333C61.7404 51.2989 61.7552 51.5676 61.7708 51.8392C63.7646 50.2134 66.1526 48.0792 68.6359 45.7462L70.3022 44.1648C70.5812 43.8974 70.8605 43.6285 71.1398 43.3584L72.8116 41.7269L74.4625 40.0875L76.0727 38.4606L77.6226 36.8666C75.91 33.3676 74.0631 30.7968 72.3451 28.9191L71.7775 28.3185C71.4029 27.9348 71.036 27.584 70.6798 27.2636L70.1539 26.8054L69.6463 26.3908C69.4803 26.2596 69.3178 26.1354 69.159 26.0178L68.6943 25.6846L68.2543 25.3891L67.6455 25.0126L67.1044 24.7101L66.5011 24.4109L66.0487 24.2163L65.2231 23.9179L64.6218 23.725L64.0347 23.5592L63.5878 23.4467L63.102 23.338C63.0181 23.3204 62.9328 23.3031 62.8461 23.2863L62.3115 23.1912L61.7503 23.1106C58.791 22.7397 54.9679 23.1286 53.3286 26.9992Z" fill="url(#i7_paint0_linear_404_118)"/>
<path d="M63.8523 83.6904C63.3582 80.1284 62.9071 76.625 62.4991 73.1803C62.1679 70.3197 61.8968 67.5017 61.6748 64.7112L61.4844 62.2096C61.4811 62.1435 61.4793 62.0797 61.4799 62.0191C61.2459 58.6271 61.0765 55.323 61.0009 52.0854L50.3182 46.9341L50.289 47.5887L50.2173 48.9479C50.1108 51.5071 50.0317 54.2267 50.0094 57.0851C49.9833 60.3071 50.014 63.6679 50.0721 67.189C50.1476 70.4266 50.28 73.803 50.4554 77.238C50.5853 79.4433 50.7273 81.6651 50.8905 83.9157L51.0866 86.5186L65.3774 93.7585L64.8735 90.3858L63.8523 83.6904Z" fill="url(#i7_paint1_linear_404_118)"/>
<path d="M84.5229 166.679L84.7442 167.441L86.1635 172.264C86.3674 172.949 86.5739 173.637 86.7841 174.329L87.4615 176.521L87.6931 177.31C87.734 177.439 87.778 177.567 87.8275 177.696L90.1297 185.074C92.1686 184.652 94.6539 185.413 97.2792 186.558L98.336 187.035C96.4034 184.71 93.7282 183.154 90.5315 182.794C99.2841 176.956 105.043 169.437 104.234 160.467C104.147 159.673 104.04 158.85 103.881 158.02C103.749 161.326 102.429 163.753 98.6035 166.347L98.1324 166.659C102.089 159.696 103.178 154.972 102.71 148.864C102.594 147.416 102.414 145.879 102.147 144.225C100.882 153.319 95.9983 159.204 88.8558 162.686L84.5229 166.679Z" fill="url(#i7_paint2_linear_404_118)"/>
<path d="M79.4023 156.008L78.4934 152.6L76.665 145.701C75.7976 142.368 74.9595 139.014 74.1291 135.608C73.2988 132.203 72.4978 128.776 71.6968 125.349C70.8821 121.842 70.1182 118.342 69.3837 114.822L68.6584 111.341L67.266 104.376C67.0172 103.115 66.79 101.884 66.5705 100.601C66.1708 98.4587 65.8004 96.2945 65.43 94.1304L65.3536 93.7805L51.1431 86.5269L51.1896 86.9772C51.195 87.0551 51.1974 87.1336 51.1942 87.2111C51.4809 90.4291 51.7598 93.6979 52.1404 96.9823C52.5132 100.318 52.9369 103.661 53.4328 107.041C53.8543 109.889 54.3051 112.716 54.7774 115.572L55.087 117.285C55.7414 120.819 56.4408 124.231 57.2006 127.417C58.0506 131.034 58.961 134.426 59.8812 137.585C60.4998 139.657 61.1047 141.649 61.7253 143.539L62.2759 145.132L63.4144 148.299C64.7727 151.994 66.2776 155.581 67.8998 159.082L82.2629 166.359C81.4974 163.718 80.7905 161.034 80.0113 158.312L79.6133 156.787L79.4023 156.008Z" fill="url(#i7_paint3_linear_404_118)"/>
<path d="M68.1068 159.56C69.8378 163.263 71.726 166.85 73.8105 170.294L74.9664 172.163C73.6055 171.615 71.8842 171.343 70.2118 171.221L69.3816 171.172C69.2445 171.166 69.1083 171.161 68.9731 171.156L68.1763 171.139L67.0533 171.143L66.0508 171.172L65.2073 171.216L64.0264 171.313C64.0165 171.314 64.0122 171.315 64.0134 171.315C71.2759 173.834 77.6449 176.919 81.6625 181.594C80.0659 183.352 77.0771 184.689 73.3198 185.777C76.1171 186.08 78.2481 185.957 79.7847 185.706L80.4071 185.592C80.5049 185.572 80.5996 185.551 80.6914 185.531L81.207 185.403L81.6529 185.272L82.194 185.084L82.4713 184.97C80.1638 186.894 78.7199 190.172 77.5196 193.846L77.1051 195.158C77.0374 195.379 76.9703 195.6 76.9036 195.823C79.9594 190.828 82.9904 187.521 85.9421 186.257C89.2386 197.188 93.051 208.821 97.235 220.961L99.1919 226.599C99.8527 228.49 100.522 230.392 101.198 232.305C102.172 231.05 102.281 229.661 101.873 228.246L100.535 224.467L99.0111 220.05L96.6501 213.045L94.7154 207.171L92.5775 200.544L90.5362 194.078L88.6625 188.019L87.2842 183.481L86.1624 179.735C86.0123 179.243 85.8752 178.743 85.7275 178.236L85.3049 176.845L84.0935 172.66L82.8615 168.354L82.3075 166.369L82.2859 166.34L67.9229 159.063C67.9555 159.189 67.9916 159.293 68.0352 159.398L68.1068 159.56Z" fill="url(#i7_paint4_linear_404_118)"/>
<path d="M67.0471 94.0647L67.3018 95.4566C67.486 96.4041 67.6571 97.3611 67.8389 98.3237L69.3927 106.296L69.9635 109.072L70.7948 112.995C70.9366 113.658 71.0797 114.326 71.2237 114.998C71.6527 116.984 72.1049 119.001 72.5786 121.062L73.5543 125.242L74.5254 129.32C74.6915 130.009 74.8597 130.702 75.0298 131.399L76.0727 135.619L77.1155 139.72C77.6448 141.793 78.1895 143.899 78.7651 146.048C79.1851 147.634 79.6213 149.243 80.0672 150.872L81.5611 156.311L82.6898 160.308L83.8553 164.391C84.0528 165.078 84.252 165.767 84.4528 166.459C84.4666 166.539 84.4803 166.619 84.5233 166.678L88.8562 162.686L88.7512 162.729L88.5199 162.842C93.6619 157.986 98.0687 148.255 99.076 139.486C99.5397 135.447 99.4969 131.148 98.9417 126.458C98.5415 122.962 97.8304 119.289 96.8532 115.314C96.0013 111.88 94.948 108.232 93.664 104.393C92.8689 106.014 91.7395 107.609 90.3559 109.166L89.6055 109.988L89.3487 110.255L88.8042 110.801C92.5967 104.905 93.0477 98.5745 91.9229 92.0019C91.2335 93.9514 89.8798 96.8396 87.6344 99.4349C87.3472 99.7811 87.0091 100.119 86.671 100.458C86.6123 100.501 86.5633 100.557 86.5023 100.615L86.3993 100.702C87.6576 98.6059 88.5874 96.6153 89.1829 94.5993C89.2779 94.3191 89.3504 94.0353 89.4153 93.7505L89.5089 93.3225C89.6611 92.6695 89.7625 92.0086 89.8639 91.3478L90.0081 90.0691C90.065 89.3168 90.0812 88.5437 90.0443 87.7588L89.9454 86.3141C89.9357 86.2076 89.9231 86.1016 89.9048 85.9947L89.7538 85.0696C89.7284 84.9212 89.7016 84.7754 89.6716 84.6321C89.3777 82.9145 89.0551 81.3837 88.7223 80.026L88.4105 78.8073L88.1286 77.7779L87.7622 76.5602L87.286 75.1335C87.2356 74.99 87.1852 74.8522 87.1339 74.7208L86.8463 74.0012C86.754 73.7798 86.6656 73.5774 86.5818 73.395L86.3452 72.9087C86.2997 73.0925 86.2411 73.2858 86.1631 73.4801L86.0308 73.771C85.1362 75.8711 83.0552 78.7518 81.1576 80.7761C81.1283 80.7976 81.0989 80.8191 81.0911 80.87L80.6997 81.2609C80.633 81.3316 80.5667 81.4052 80.5029 81.4822L80.5771 81.3375L66.9258 93.8379C67.0412 93.9337 67.0549 94.0138 67.0471 94.0647Z" fill="url(#i7_paint5_linear_404_118)"/>
<path d="M61.7725 51.8426C61.8276 52.8397 61.8936 53.8789 61.9697 54.9592L62.1351 57.1742C62.1649 57.5523 62.1956 57.935 62.2275 58.3221L62.4305 60.6976C62.4664 61.1023 62.5032 61.5114 62.5409 61.9248L62.5729 62.319C62.5806 62.3818 62.5913 62.4441 62.6076 62.5074C62.7232 63.7251 62.8517 64.9777 62.9939 66.2695L63.2967 68.9065C63.4039 69.8038 63.5173 70.7196 63.6372 71.6554L64.2053 75.9446C64.4709 77.8918 64.7584 79.9092 65.08 82.0132L65.3278 83.6076C65.5728 85.2322 65.8447 86.8934 66.1326 88.5994L67.0328 93.8595L80.6841 81.359C83.5307 76.2023 84.153 72.9937 84.1143 69.0073C84.1008 68.2052 84.0631 67.3702 84.0102 66.5145L83.9527 65.6524C83.7342 62.1587 83.3144 58.4521 82.7186 54.8745C82.1581 51.4064 81.4725 48.0751 80.6873 45.223C80.19 43.3776 79.6615 41.7355 79.1233 40.3261C78.634 39.1063 78.1291 37.9882 77.6165 36.9209L76.0687 38.5011C75.8051 38.768 75.539 39.0364 75.2708 39.3059L73.6393 40.9318L71.9766 42.5623L70.3026 44.1766C70.0237 44.4432 69.7452 44.7083 69.4674 44.9713L67.8132 46.5227C65.6285 48.5506 63.5448 50.3975 61.7725 51.8426Z" fill="url(#i7_paint6_linear_404_118)"/>
<path d="M193.196 29.6763C192.759 29.8566 192.282 30.0831 191.769 30.3541L190.972 30.7939C190.423 31.1091 189.838 31.4681 189.22 31.8695L188.268 32.5031L187.268 33.1991L186.221 33.9563L185.129 34.7736C184.943 34.9148 184.756 35.0584 184.567 35.2044L183.411 36.1098L182.214 37.0725L180.977 38.0914L179.704 39.1653L178.395 40.2932L177.052 41.4739L175.676 42.7063C175.445 42.9159 175.211 43.1277 174.977 43.3415L179.478 56.0168C184.347 50.8212 189.238 46.1958 194.037 42.2545L195.725 40.8847L195.847 40.7913L194.686 41.736L193.548 42.7204L192.313 43.8367L191.142 44.934L190.158 45.8808L189.452 46.5729L187.922 48.107L186.671 49.3926L184.868 51.2925L183.909 52.3242L182.912 53.4117L181.347 55.1495L180.256 56.3804C181.376 56.4868 182.603 56.5789 183.91 56.6572L185.926 56.7646L188.041 56.852L190.234 56.9199L192.482 56.9688L194.766 56.9993C195.148 57.0028 195.531 57.0057 195.914 57.0077L198.211 57.0115C198.593 57.0107 198.975 57.0091 199.355 57.0069L201.617 56.9851C201.991 56.9801 202.363 56.9744 202.732 56.968L204.913 56.9218C206.704 51.584 207.114 47.2918 206.975 44.0869L206.927 43.2755L206.857 42.5136C206.844 42.3907 206.83 42.2699 206.815 42.1512L206.719 41.4638L206.61 40.8264C206.591 40.7243 206.571 40.6243 206.551 40.5264L206.428 39.9641L206.3 39.452L206.169 38.9905L206.04 38.5796L205.799 37.9103L205.604 37.4454L205.139 36.4866L204.868 35.9748L204.641 35.5727L204.378 35.131L204.08 34.6576L203.747 34.1604L203.379 33.6471C201.325 30.8814 197.818 27.7691 193.196 29.6763Z" fill="url(#i7_paint7_linear_404_118)"/>
<path d="M156.631 83.6828C159.063 80.4228 161.484 77.2442 163.892 74.1469C166.4 70.9395 168.93 67.8602 171.49 64.8683C171.642 64.6827 171.794 64.4971 171.94 64.3522C174.446 61.4357 176.935 58.6413 179.446 55.9749L174.939 43.3403L174.396 43.8441L173.258 44.8813C171.139 46.8569 168.915 48.9834 166.626 51.2667C165.335 52.5532 164.029 53.8789 162.701 55.2431L160.015 58.0226C159.562 58.4943 159.107 58.9702 158.648 59.4503C156.137 62.1167 153.561 64.9399 150.973 67.8445C149.325 69.723 147.674 71.6244 146.018 73.5659L144.107 75.8171L149.859 92.9995L152.133 89.8841L156.631 83.6828Z" fill="url(#i7_paint8_linear_404_118)"/>
<path d="M107.328 166.912L106.473 168.491L104.212 172.712C103.832 173.425 103.451 174.143 103.07 174.867L101.874 177.17C101.645 177.594 101.423 177.977 101.235 178.407L99.9768 180.835L97.2266 186.175C99.4665 187.626 100.961 190.756 102.274 194.274C102.566 190.867 101.648 187.489 99.3614 184.659C111.045 186.914 121.656 185.436 128.131 177.572C128.692 176.865 129.259 176.117 129.792 175.322C127.05 177.886 124.05 178.789 118.883 177.824L118.299 177.71C127.017 175.247 131.647 172.31 136.123 167.021C137.181 165.763 138.256 164.383 139.356 162.839C131.112 169.155 122.505 170.012 113.988 167.141L107.328 166.912Z" fill="url(#i7_paint9_linear_404_118)"/>
<path d="M111.235 155.045L113.66 150.785L117.669 143.779C119.619 140.406 121.609 137.04 123.647 133.639C125.684 130.238 127.762 126.843 129.84 123.447C131.971 119.977 134.136 116.553 136.342 113.135C138.501 109.752 140.742 106.38 142.936 103.044C143.738 101.831 144.533 100.659 145.376 99.4523C146.756 97.4099 148.177 95.3734 149.599 93.337L149.815 92.9946L144.139 75.8647L143.818 76.2643C143.761 76.3313 143.7 76.3963 143.636 76.4562C141.31 79.2745 138.938 82.1276 136.635 85.074C134.285 88.0551 131.97 91.0829 129.683 94.198C127.759 96.8259 125.876 99.4598 123.987 102.134L122.876 103.759C120.594 107.124 118.447 110.426 116.527 113.595C114.338 117.182 112.376 120.635 110.607 123.91C109.458 126.069 108.363 128.153 107.36 130.168C106.528 131.875 105.73 133.629 104.938 135.342C103.096 139.396 101.458 143.479 99.9819 147.586L105.763 164.856L106.888 162.806L109.188 158.682C109.574 157.989 109.959 157.292 110.343 156.59L111.235 155.045Z" fill="url(#i7_paint10_linear_404_118)"/>
<path d="M99.7812 148.136C98.2326 152.492 96.9021 156.881 95.8442 161.309L95.2894 163.732C94.7688 162.532 93.9322 161.292 92.9892 160.122L92.4123 159.429C92.3146 159.315 92.2162 159.202 92.1174 159.091L91.521 158.433L90.9242 157.805L90.337 157.213L89.4964 156.403L88.734 155.701L87.8979 154.967L87.146 154.348C90.9907 162.146 93.667 169.689 93.1869 176.644C90.5047 176.791 87.0367 175.493 83.1472 173.384C84.8214 175.437 86.3588 176.886 87.6554 177.901L88.2364 178.34C88.3303 178.408 88.4226 178.474 88.5134 178.537L89.0389 178.891L89.5245 179.192L89.9679 179.445L90.367 179.654L90.7195 179.822L91.0229 179.952C91.0693 179.971 91.1136 179.989 91.1556 180.005C87.8964 179.731 84.2844 181.103 80.5532 182.993L79.3053 183.641L78.0506 184.318C84.4788 182.725 89.5465 182.471 92.9271 183.799C91.2668 186.942 89.5956 190.16 87.9144 193.445L85.3852 198.425C81.5805 205.968 77.7271 213.842 73.8347 221.983L71.2341 227.449C70.3654 229.284 69.4948 231.131 68.6226 232.99C70.4035 232.752 71.5941 231.721 72.3908 230.258L75.3357 224.014L78.0459 218.4L81.5092 211.35L84.5682 205.221L87.599 199.232L90.4783 193.615L94.4742 185.933L97.3114 180.556L98.2865 178.723L99.1271 177.171L99.8918 175.716L101.057 173.564L103.447 169.175C103.852 168.434 104.26 167.689 104.672 166.938L105.802 164.901L105.808 164.86L100.028 147.59C99.9534 147.718 99.9 147.83 99.8517 147.949L99.7812 148.136Z" fill="url(#i7_paint11_linear_404_118)"/>
<path d="M150.959 94.578L150.059 95.9009C149.454 96.81 148.831 97.7164 148.213 98.6357L145.247 103.108L143.13 106.288L142.593 107.111C141.789 108.344 140.981 109.598 140.166 110.871L137.69 114.748C136.046 117.334 134.392 119.998 132.701 122.758L131.427 124.846C129.402 128.166 127.312 131.643 125.21 135.201L122.79 139.331C121.57 141.42 120.335 143.548 119.091 145.736C118.353 147.024 117.612 148.332 116.866 149.657L113.187 156.219L112.06 158.263L109.771 162.429C109.002 163.833 108.228 165.253 107.453 166.686C107.4 166.761 107.347 166.836 107.335 166.918L113.995 167.147C113.879 167.088 113.757 167.07 113.6 167.006C121.598 167.181 132.877 162.85 140.655 156.591C144.237 153.707 147.619 150.212 150.898 145.996C153.353 142.864 155.699 139.342 158.07 135.366C160.114 131.924 162.164 128.151 164.181 124.04C162.253 124.713 160.075 125.1 157.725 125.254L156.468 125.319C156.189 125.334 155.912 125.33 155.623 125.331L155.177 125.338C162.914 123.605 168.307 118.867 172.624 112.682C170.52 113.703 167.135 114.953 163.266 115.258C162.759 115.309 162.218 115.312 161.677 115.316C161.596 115.304 161.512 115.31 161.417 115.309L161.264 115.297C163.943 114.609 166.273 113.746 168.354 112.596C168.653 112.446 168.937 112.275 169.216 112.097L169.631 111.827C170.273 111.422 170.879 110.971 171.486 110.519L172.618 109.604C173.476 108.857 174.305 108.023 175.065 107.095L175.551 106.532C175.628 106.438 175.702 106.343 175.772 106.242L176.385 105.378C176.483 105.238 176.577 105.1 176.667 104.96C177.818 103.31 178.791 101.793 179.613 100.413L179.956 99.8303C180.401 99.0642 180.793 98.3734 181.139 97.7174L181.543 96.9452L182.156 95.7032C182.282 95.4456 182.398 95.1998 182.499 94.9652L182.678 94.5482L182.982 93.7941C183.072 93.5613 183.149 93.3475 183.215 93.1542L183.304 92.8799C183.121 92.9917 182.92 93.1008 182.703 93.1952L182.365 93.3242C179.976 94.3041 176.012 94.9697 172.877 95.0916C172.836 95.0856 172.795 95.0796 172.748 95.1144L172.123 95.118C172.013 95.1219 171.901 95.1286 171.789 95.1398L171.963 95.0823L151.042 94.2991C151.059 94.4678 151.006 94.5433 150.959 94.578Z" fill="url(#i7_paint12_linear_404_118)"/>
<path d="M180.257 56.3804C179.51 57.2268 178.737 58.1159 177.94 59.046L176.313 60.9605L174.622 62.9818L172.578 65.45C172.534 65.5067 172.494 65.5653 172.456 65.6292C171.29 67.0587 170.094 68.5564 168.86 70.1319L166.98 72.5544C166.661 72.9683 166.34 73.3873 166.017 73.8116L163.316 77.3831L161.55 79.749C160.656 80.9547 159.745 82.1959 158.816 83.479L157.882 84.7764C156.944 86.0643 156.002 87.3895 155.044 88.7507L153.105 91.5206L151.109 94.384L172.03 95.1672C178.419 93.2776 181.469 91.1891 184.605 87.9492C185.232 87.2928 185.865 86.5906 186.502 85.8598L187.141 85.1201C189.741 82.1341 192.348 78.8165 194.711 75.4632C197.015 72.2259 199.11 68.9995 200.744 66.0797C201.81 64.1989 202.689 62.4571 203.375 60.8949C203.951 59.5242 204.432 58.223 204.868 56.9565L202.698 56.9944L200.466 57.0176L198.194 57.0255L195.903 57.0174C195.52 57.0146 195.138 57.0112 194.757 57.0071L192.477 56.9737L190.231 56.9227C189.861 56.9127 189.493 56.902 189.128 56.8904L186.973 56.8117C186.62 56.797 186.272 56.7815 185.927 56.7652L183.911 56.6574C182.604 56.5789 181.377 56.4868 180.257 56.3804Z" fill="url(#i7_paint13_linear_404_118)"/>
<defs>
<linearGradient id="i7_paint0_linear_404_118" x1="55.9915" y1="41.4914" x2="90.6865" y2="30.1775" gradientUnits="userSpaceOnUse">
<stop stop-color="#F69923"/>
<stop offset="0.3123" stop-color="#F79A23"/>
<stop offset="0.8383" stop-color="#E97826"/>
</linearGradient>
<linearGradient id="i7_paint1_linear_404_118" x1="53.2537" y1="231.877" x2="95.8234" y2="62.8714" gradientUnits="userSpaceOnUse">
<stop offset="0.3233" stop-color="#9E2064"/>
<stop offset="0.6302" stop-color="#C92037"/>
<stop offset="0.7514" stop-color="#CD2335"/>
<stop offset="1" stop-color="#E97826"/>
</linearGradient>
<linearGradient id="i7_paint2_linear_404_118" x1="91.4313" y1="226.554" x2="119.396" y2="90.357" gradientUnits="userSpaceOnUse">
<stop stop-color="#282662"/>
<stop offset="0.0954839" stop-color="#662E8D"/>
<stop offset="0.7882" stop-color="#9F2064"/>
<stop offset="0.9487" stop-color="#CD2032"/>
</linearGradient>
<linearGradient id="i7_paint3_linear_404_118" x1="60.5529" y1="222.638" x2="122.45" y2="72.1246" gradientUnits="userSpaceOnUse">
<stop offset="0.3233" stop-color="#9E2064"/>
<stop offset="0.6302" stop-color="#C92037"/>
<stop offset="0.7514" stop-color="#CD2335"/>
<stop offset="1" stop-color="#E97826"/>
</linearGradient>
<linearGradient id="i7_paint4_linear_404_118" x1="76.0204" y1="215.683" x2="125.862" y2="153.584" gradientUnits="userSpaceOnUse">
<stop stop-color="#282662"/>
<stop offset="0.0954839" stop-color="#662E8D"/>
<stop offset="0.7882" stop-color="#9F2064"/>
<stop offset="0.9487" stop-color="#CD2032"/>
</linearGradient>
<linearGradient id="i7_paint5_linear_404_118" x1="79.8609" y1="248.894" x2="125.369" y2="33.4761" gradientUnits="userSpaceOnUse">
<stop offset="0.3233" stop-color="#9E2064"/>
<stop offset="0.6302" stop-color="#C92037"/>
<stop offset="0.7514" stop-color="#CD2335"/>
<stop offset="1" stop-color="#E97826"/>
</linearGradient>
<linearGradient id="i7_paint6_linear_404_118" x1="66.7557" y1="302.142" x2="109.583" y2="52.8396" gradientUnits="userSpaceOnUse">
<stop offset="0.3233" stop-color="#9E2064"/>
<stop offset="0.6302" stop-color="#C92037"/>
<stop offset="0.7514" stop-color="#CD2335"/>
<stop offset="1" stop-color="#E97826"/>
</linearGradient>
<linearGradient id="i7_paint7_linear_404_118" x1="180.304" y1="45.9286" x2="225.334" y2="33.9264" gradientUnits="userSpaceOnUse">
<stop stop-color="#F69923"/>
<stop offset="0.3123" stop-color="#F79A23"/>
<stop offset="0.8383" stop-color="#E97826"/>
</linearGradient>
<linearGradient id="i7_paint8_linear_404_118" x1="113.92" y1="239.48" x2="205.543" y2="71.6141" gradientUnits="userSpaceOnUse">
<stop offset="0.3233" stop-color="#9E2064"/>
<stop offset="0.6302" stop-color="#C92037"/>
<stop offset="0.7514" stop-color="#CD2335"/>
<stop offset="1" stop-color="#E97826"/>
</linearGradient>
<linearGradient id="i7_paint9_linear_404_118" x1="88.5401" y1="203.463" x2="129.915" y2="133.972" gradientUnits="userSpaceOnUse">
<stop stop-color="#282662"/>
<stop offset="0.0954839" stop-color="#662E8D"/>
<stop offset="0.7882" stop-color="#9F2064"/>
<stop offset="0.9487" stop-color="#CD2032"/>
</linearGradient>
<linearGradient id="i7_paint10_linear_404_118" x1="104.576" y1="227.592" x2="197.49" y2="70.3108" gradientUnits="userSpaceOnUse">
<stop offset="0.3233" stop-color="#9E2064"/>
<stop offset="0.6302" stop-color="#C92037"/>
<stop offset="0.7514" stop-color="#CD2335"/>
<stop offset="1" stop-color="#E97826"/>
</linearGradient>
<linearGradient id="i7_paint11_linear_404_118" x1="82.3985" y1="213.608" x2="133.362" y2="137.786" gradientUnits="userSpaceOnUse">
<stop stop-color="#282662"/>
<stop offset="0.0954839" stop-color="#662E8D"/>
<stop offset="0.7882" stop-color="#9F2064"/>
<stop offset="0.9487" stop-color="#CD2032"/>
</linearGradient>
<linearGradient id="i7_paint12_linear_404_118" x1="80.9401" y1="227.736" x2="188.052" y2="56.1049" gradientUnits="userSpaceOnUse">
<stop offset="0.3233" stop-color="#9E2064"/>
<stop offset="0.6302" stop-color="#C92037"/>
<stop offset="0.7514" stop-color="#CD2335"/>
<stop offset="1" stop-color="#E97826"/>
</linearGradient>
<linearGradient id="i7_paint13_linear_404_118" x1="81.2953" y1="159.727" x2="149.893" y2="46.6716" gradientUnits="userSpaceOnUse">
<stop offset="0.3233" stop-color="#9E2064"/>
<stop offset="0.6302" stop-color="#C92037"/>
<stop offset="0.7514" stop-color="#CD2335"/>
<stop offset="1" stop-color="#E97826"/>
</linearGradient>
</defs>
</svg><svg x="2400" y="0" width="256" height="256" viewBox="0 0 256 256">
<rect width="256" height="256" rx="60" fill="#242938"/>
<path d="M212.674 66.7949C207.14 61.2784 199.681 58.1265 191.868 58.0037C184.055 57.8809 176.5 60.7969 170.795 66.1368C170.513 66.3966 170.287 66.7119 170.132 67.063C169.977 67.4141 169.897 67.7933 169.896 68.177C169.885 68.5629 169.954 68.9468 170.097 69.3052C170.24 69.6636 170.455 69.9889 170.729 70.2611L174.524 74.0563C175.014 74.5436 175.662 74.8384 176.351 74.8867C177.04 74.9351 177.723 74.7338 178.276 74.3196C181.771 71.6907 186.133 70.4861 190.482 70.9492C194.831 71.4122 198.842 73.5084 201.705 76.8144C204.568 80.1203 206.07 84.3896 205.907 88.76C205.744 93.1304 203.929 97.2761 200.828 100.36C176.916 124.272 144.974 57.2519 72.5572 91.7163C71.3226 92.2898 70.2206 93.1135 69.3211 94.1352C68.4215 95.157 67.744 96.3544 67.3315 97.6517C66.919 98.949 66.7805 100.318 66.9248 101.671C67.0691 103.025 67.493 104.334 68.1697 105.515L80.6084 127.014C81.8996 129.248 84.0192 130.883 86.5078 131.565C88.9964 132.247 91.6534 131.92 93.9028 130.656L94.2099 130.415L93.9686 130.59L99.475 127.519C105.615 123.703 111.42 119.373 116.828 114.576C117.361 114.084 118.053 113.801 118.778 113.777C119.502 113.753 120.212 113.989 120.777 114.444C121.107 114.702 121.377 115.029 121.566 115.403C121.756 115.777 121.86 116.188 121.873 116.607C121.885 117.026 121.805 117.442 121.639 117.827C121.472 118.211 121.223 118.554 120.908 118.832C115.237 123.956 109.121 128.566 102.634 132.608H102.437L96.9302 135.702C93.3206 137.697 89.0739 138.201 85.0975 137.106C81.1212 136.012 77.7307 133.406 75.6505 129.844L63.8918 109.574C41.3397 125.61 27.6724 156.301 34.9777 195.109C35.0961 195.768 35.4422 196.364 35.9555 196.793C36.4688 197.222 37.1167 197.457 37.7857 197.457H51.1459C51.8459 197.452 52.5205 197.194 53.0448 196.73C53.5691 196.266 53.9077 195.628 53.9978 194.934C54.5941 190.2 56.8978 185.846 60.4766 182.689C64.0553 179.533 68.663 177.792 73.4348 177.792C78.2065 177.792 82.8142 179.533 86.3929 182.689C89.9717 185.846 92.2754 190.2 92.8717 194.934C92.9569 195.626 93.291 196.264 93.8117 196.728C94.3324 197.192 95.0041 197.451 95.7017 197.457H108.733C109.433 197.452 110.107 197.194 110.632 196.73C111.156 196.266 111.495 195.628 111.585 194.934C112.181 190.2 114.485 185.846 118.063 182.689C121.642 179.533 126.25 177.792 131.022 177.792C135.793 177.792 140.401 179.533 143.98 182.689C147.559 185.846 149.862 190.2 150.459 194.934C150.546 195.653 150.902 196.313 151.456 196.78C152.009 197.248 152.718 197.49 153.442 197.457H166.32C167.073 197.451 167.794 197.153 168.33 196.624C168.867 196.096 169.176 195.38 169.194 194.627C169.479 176.462 174.371 155.621 188.345 145.157C236.565 109.003 223.841 78.0271 212.674 66.7949ZM163.358 121.442L154.144 116.813C154.14 115.822 154.391 114.847 154.872 113.981C155.353 113.114 156.048 112.386 156.891 111.865C157.734 111.344 158.697 111.048 159.687 111.006C160.676 110.963 161.661 111.175 162.545 111.622C163.43 112.068 164.185 112.734 164.739 113.556C165.293 114.378 165.626 115.328 165.708 116.315C165.789 117.303 165.616 118.295 165.205 119.196C164.793 120.098 164.157 120.879 163.358 121.464V121.442Z" fill="white"/>
</svg><svg x="2700" y="0" width="256" height="256" viewBox="0 0 256 256"><rect width="256" height="256" fill="#242938" rx="60"/><path fill="#ECEFF1" d="M85.9493 199.926L110.48 213.546H147.576L182.278 187.491L197.834 146.632L161.935 103.405L151.764 79.1268L102.104 80.9032L102.702 94.5228L93.1291 112.287L78.1713 141.303L75.1797 165.581L85.9493 199.926Z"/><path fill="#263238" d="M187.064 114.656C177.491 101.036 169.713 92.7463 165.525 75.5738C161.337 58.4013 166.722 63.1386 163.132 48.3347C161.337 40.6367 158.345 35.3073 155.354 31.1622C151.764 27.0171 147.576 24.6485 145.182 24.0563C139.798 21.0956 127.233 16.3583 111.677 24.6485C95.5223 32.9387 97.3172 50.7033 100.309 86.8248C100.309 89.1934 99.7105 92.1542 98.5139 94.5228C96.1206 99.8522 91.9324 104.589 88.3425 108.735C84.1543 114.656 79.9661 120.578 76.9746 127.091C69.7948 140.711 63.2134 157.883 65.0083 164.397C67.9999 163.805 105.694 220.652 105.694 221.836C108.087 221.244 118.258 221.244 127.233 221.244C139.798 220.652 146.977 220.06 157.149 222.428C157.149 220.652 156.55 218.875 156.55 217.099C156.55 213.546 157.149 210.585 157.747 206.44C158.345 203.479 158.944 200.519 159.542 196.966C153.559 202.295 142.789 208.217 132.618 209.993C123.643 211.769 108.685 208.809 101.505 199.926C102.104 199.926 103.3 199.926 103.899 199.334C105.694 198.742 107.489 198.15 108.087 196.966C109.882 194.005 108.685 191.044 107.489 189.268C106.292 187.491 97.3173 180.977 93.1291 177.425C88.9409 173.872 86.5476 172.095 84.1544 169.727C84.1544 169.727 80.5645 166.174 79.3678 164.989C78.1712 163.805 77.5729 162.621 76.9746 162.028C75.778 159.068 75.1796 155.515 75.778 150.778C76.3763 144.264 78.7695 138.934 81.7611 133.013C82.9577 130.644 85.9493 125.907 85.9493 125.907C85.9493 125.907 75.778 150.778 81.1628 158.476C81.1628 158.476 81.7611 150.778 84.1544 143.08C85.9493 137.75 88.9409 130.052 92.5307 125.907C96.1206 121.762 105.095 106.366 105.694 96.8914C105.694 92.7463 106.292 88.6012 106.292 85.6405C103.899 83.2718 145.781 77.3503 148.174 83.864C148.772 86.2326 157.149 107.55 161.935 118.801C164.328 124.131 167.32 128.868 169.115 134.789C170.91 141.303 172.106 150.185 172.106 159.068C172.106 160.844 172.106 163.805 171.508 166.766C172.705 166.766 196.039 141.895 168.517 121.17C168.517 121.17 185.269 128.868 185.868 144.264C186.466 156.699 181.081 166.766 179.885 168.542C180.483 168.542 192.449 173.872 193.047 173.872C195.441 173.872 200.227 172.095 200.227 172.095C200.826 170.319 202.62 165.581 202.62 163.805C206.809 150.185 196.637 128.276 187.064 114.656V114.656Z"/><path fill="#ECEFF1" d="M111.078 75.5738C115.374 75.5738 118.856 70.2714 118.856 63.7307C118.856 57.1899 115.374 51.8876 111.078 51.8876C106.783 51.8876 103.3 57.1899 103.3 63.7307C103.3 70.2714 106.783 75.5738 111.078 75.5738Z"/><path fill="#ECEFF1" d="M138.002 76.7581C143.62 76.7581 148.174 70.6604 148.174 63.1386C148.174 55.6167 143.62 49.519 138.002 49.519C132.385 49.519 127.831 55.6167 127.831 63.1386C127.831 70.6604 132.385 76.7581 138.002 76.7581Z"/><path fill="#212121" d="M115.424 64.5411C114.927 60.6476 112.663 57.7241 110.368 58.0111C108.074 58.2982 106.616 61.6872 107.114 65.5807C107.611 69.4741 109.874 72.3977 112.169 72.1106C114.464 71.8235 115.921 68.4345 115.424 64.5411Z"/><path fill="#212121" d="M137.404 73.2052C140.709 73.2052 143.387 69.7587 143.387 65.5072C143.387 61.2557 140.709 57.8091 137.404 57.8091C134.1 57.8091 131.421 61.2557 131.421 65.5072C131.421 69.7587 134.1 73.2052 137.404 73.2052Z"/><path fill="#FFC107" d="M216.98 195.781C214.587 194.597 210.398 192.82 206.808 187.491C205.014 184.53 205.612 176.24 202.62 172.687C200.825 170.319 198.432 171.503 197.834 171.503C192.449 172.687 179.884 180.977 171.508 171.503C170.311 170.319 168.516 168.542 165.525 168.542C162.533 168.542 161.337 169.726 160.14 172.095C158.943 174.464 158.943 176.24 158.943 182.162C158.943 186.899 158.943 192.228 158.345 196.373C157.148 206.44 155.354 212.362 155.354 218.283C155.354 224.797 157.148 228.942 159.542 230.718C161.337 232.495 164.328 233.679 170.91 233.679C177.491 233.679 181.679 231.311 185.868 227.165C188.859 224.205 191.252 223.02 199.629 217.099C206.21 212.954 216.382 207.624 218.176 205.848C219.373 204.664 221.168 204.071 221.168 200.518C221.168 197.558 218.775 196.373 216.98 195.781V195.781Z"/><path fill="#FFC107" d="M96.7189 197.558C90.7357 188.083 90.1374 186.307 85.9492 180.385C82.3593 174.464 74.5813 163.213 69.7948 163.213C66.2049 163.213 64.4099 164.989 62.0167 167.358C59.6234 169.726 57.2302 175.056 53.042 178.017C49.4521 180.977 39.2808 180.385 36.8875 183.938C34.4942 187.491 39.2808 192.821 39.2808 201.703C39.2808 205.256 36.2892 207.624 35.6909 209.993C35.0926 212.954 34.4942 214.73 35.6909 217.099C38.0841 220.652 41.0757 221.836 61.4184 225.981C72.188 228.35 82.3593 234.271 88.9408 234.864C95.5222 235.456 106.89 234.864 106.89 218.875C107.489 209.401 102.104 207.032 96.7189 197.558Z"/><path fill="#FFC107" d="M108.087 90.3777C104.497 88.0091 101.505 85.6404 101.505 82.0875C101.505 78.5346 103.899 77.3503 107.489 74.3895C108.087 73.7973 114.668 67.8758 121.25 67.8758C127.831 67.8758 135.609 72.0209 138.601 73.2052C143.986 74.3895 149.37 75.5738 148.772 79.7189C148.174 85.6404 147.576 86.8248 141.592 89.7855C137.404 90.9698 129.626 97.4835 124.241 97.4835C121.848 97.4835 118.258 97.4835 115.865 96.8914C114.07 96.2992 111.078 93.3385 108.087 90.3777V90.3777Z"/><path fill="#634703" d="M106.89 85.6405C108.087 86.8248 109.882 88.0091 111.677 88.6012C112.873 89.1934 114.668 89.7856 114.668 89.7856C117.062 89.7856 118.857 89.7856 120.053 89.7856C123.045 89.7856 127.233 88.6013 131.421 86.2326C135.609 84.4562 136.208 83.2718 139.199 82.0875C142.191 80.3111 145.182 78.5346 143.986 77.9425C142.789 77.3503 141.592 77.9425 137.404 80.3111C133.814 82.6797 130.823 83.864 127.233 85.6405C125.438 86.2326 123.045 87.4169 121.25 87.4169C119.455 87.4169 117.66 87.4169 115.865 87.4169C114.07 87.4169 112.873 86.8248 111.078 86.2326C109.882 85.6405 109.283 85.0483 108.685 85.0483C107.489 84.4562 105.095 82.0875 103.899 81.4954C103.899 81.4954 102.702 81.4954 103.3 82.0875C105.095 83.864 105.694 84.4562 106.89 85.6405Z"/><path fill="#634703" d="M124.84 72.613C125.438 73.7973 126.635 73.7973 127.233 74.3895C127.831 74.9816 128.429 74.9816 128.429 74.9816C129.028 74.3895 128.429 73.2052 127.831 73.2052C127.831 72.0209 124.84 72.0209 124.84 72.613V72.613Z"/><path fill="#634703" d="M115.267 73.7973C115.267 74.3895 116.463 74.9816 116.463 74.3895C117.062 73.7973 117.66 73.2052 118.258 73.2052C119.455 72.613 118.856 72.0209 117.062 72.0209C115.865 72.613 115.865 73.2052 115.267 73.7973V73.7973Z"/><path fill="#455A64" d="M173.303 178.609C173.303 179.201 173.303 179.793 173.303 180.385C174.5 182.754 177.491 183.346 179.884 183.346C183.474 183.346 187.064 180.977 188.859 178.609C188.859 178.017 189.457 177.424 190.056 176.832C191.252 175.056 191.851 173.872 192.449 173.279C192.449 173.279 191.851 172.687 191.851 172.095C191.252 170.911 189.457 169.726 187.064 169.134C185.269 168.542 182.278 167.95 181.081 167.95C175.696 167.358 172.705 169.134 170.91 170.911C170.91 170.911 171.508 170.911 171.508 171.503C172.705 172.687 173.303 173.872 173.303 175.648C173.901 176.832 173.303 177.424 173.303 178.609V178.609Z"/></svg><svg x="3000" y="0" width="256" height="256" viewBox="0 0 256 256"><rect width="256" height="256" fill="#F03C2E" rx="60"/><g clip-path="url(#i10_clip0_7_283)"><path fill="#fff" d="M224.225 119.094L136.906 31.775C135.711 30.5787 134.291 29.6298 132.729 28.9824C131.166 28.3349 129.491 28.0017 127.8 28.0017C126.109 28.0017 124.434 28.3349 122.871 28.9824C121.309 29.6298 119.889 30.5787 118.694 31.775L100.569 49.9L123.569 72.9C128.919 71.025 135.044 72.3062 139.306 76.5687C141.335 78.6014 142.752 81.1638 143.394 83.9632C144.036 86.7626 143.878 89.6862 142.937 92.4L165.106 114.569C170.469 112.719 176.656 113.912 180.937 118.206C182.361 119.63 183.49 121.32 184.26 123.18C185.03 125.04 185.426 127.033 185.426 129.046C185.425 131.059 185.029 133.052 184.258 134.912C183.487 136.771 182.358 138.461 180.934 139.884C179.511 141.308 177.821 142.436 175.961 143.206C174.101 143.977 172.108 144.373 170.095 144.372C168.082 144.372 166.088 143.975 164.229 143.205C162.369 142.434 160.679 141.305 159.256 139.881C154.756 135.381 153.644 128.756 155.919 123.212L135.244 102.537V156.944C136.745 157.686 138.116 158.666 139.306 159.844C140.729 161.267 141.858 162.956 142.629 164.816C143.399 166.675 143.795 168.668 143.795 170.681C143.795 172.694 143.399 174.687 142.629 176.546C141.858 178.406 140.729 180.096 139.306 181.519C137.883 182.942 136.193 184.071 134.334 184.841C132.474 185.611 130.481 186.008 128.469 186.008C126.456 186.008 124.463 185.611 122.604 184.841C120.744 184.071 119.054 182.942 117.631 181.519C116.206 180.096 115.076 178.407 114.305 176.548C113.533 174.688 113.136 172.694 113.136 170.681C113.136 168.668 113.533 166.675 114.305 164.815C115.076 162.955 116.206 161.266 117.631 159.844C119.112 158.369 120.756 157.25 122.65 156.5V101.587C120.825 100.837 119.112 99.7312 117.631 98.2437C115.479 96.0943 114.016 93.3526 113.428 90.3684C112.841 87.3841 113.155 84.2924 114.331 81.4875L91.6437 58.8125L31.7687 118.625C30.5716 119.821 29.6219 121.241 28.9739 122.804C28.3259 124.367 27.9924 126.042 27.9924 127.734C27.9924 129.426 28.3259 131.102 28.9739 132.665C29.6219 134.228 30.5716 135.648 31.7687 136.844L119.094 224.156C120.289 225.352 121.709 226.301 123.271 226.949C124.834 227.596 126.509 227.929 128.2 227.929C129.891 227.929 131.566 227.596 133.129 226.949C134.691 226.301 136.111 225.352 137.306 224.156L224.225 137.375C225.422 136.179 226.372 134.759 227.02 133.196C227.668 131.633 228.001 129.958 228.001 128.266C228.001 126.574 227.668 124.898 227.02 123.335C226.372 121.772 225.422 120.352 224.225 119.156"/></g><defs><clipPath id="i10_clip0_7_283"><rect width="200" height="200" fill="#fff" transform="translate(28 28)"/></clipPath></defs></svg><svg x="3300" y="0" width="256" height="256" viewBox="0 0 256 256">
<rect width="256" height="256" rx="60" fill="#242938"/>
<path d="M128.001 30C72.7791 30 28 74.7708 28 130.001C28 174.184 56.6533 211.668 96.3867 224.891C101.384 225.817 103.219 222.722 103.219 220.081C103.219 217.696 103.126 209.819 103.083 201.463C75.2631 207.512 69.3927 189.664 69.3927 189.664C64.8437 178.105 58.2894 175.032 58.2894 175.032C49.2163 168.825 58.9733 168.953 58.9733 168.953C69.0151 169.658 74.3026 179.258 74.3026 179.258C83.2217 194.546 97.6965 190.126 103.403 187.571C104.301 181.107 106.892 176.696 109.752 174.199C87.5405 171.67 64.1913 163.095 64.1913 124.778C64.1913 113.86 68.0977 104.939 74.4947 97.9362C73.4564 95.4175 70.0335 85.2465 75.4635 71.4722C75.4635 71.4722 83.8609 68.7845 102.971 81.7226C110.948 79.5069 119.502 78.3958 128.001 78.3577C136.499 78.3958 145.061 79.5069 153.052 81.7226C172.139 68.7845 180.525 71.4722 180.525 71.4722C185.968 85.2465 182.544 95.4175 181.505 97.9362C187.917 104.939 191.797 113.86 191.797 124.778C191.797 163.187 168.403 171.644 146.135 174.119C149.722 177.223 152.918 183.308 152.918 192.638C152.918 206.018 152.802 216.787 152.802 220.081C152.802 222.742 154.602 225.86 159.671 224.878C199.383 211.64 228 174.169 228 130.001C228 74.7708 183.227 30 128.001 30ZM65.4536 172.453C65.2333 172.95 64.4517 173.099 63.7396 172.758C63.0143 172.432 62.6069 171.754 62.8421 171.256C63.0574 170.744 63.8406 170.602 64.5643 170.945C65.2913 171.271 65.7053 171.955 65.4536 172.453ZM70.3725 176.842C69.8956 177.285 68.9633 177.079 68.3307 176.38C67.6766 175.683 67.554 174.751 68.0376 174.302C68.5294 173.86 69.4336 174.067 70.0893 174.764C70.7434 175.47 70.8709 176.395 70.3725 176.842ZM73.7471 182.458C73.1344 182.884 72.1325 182.485 71.5132 181.595C70.9004 180.706 70.9004 179.64 71.5264 179.212C72.1474 178.785 73.1344 179.169 73.762 180.052C74.373 180.956 74.373 182.023 73.7471 182.458ZM79.4542 188.962C78.9061 189.566 77.7386 189.404 76.8841 188.579C76.0098 187.773 75.7663 186.629 76.3161 186.024C76.8709 185.418 78.045 185.589 78.9061 186.407C79.7738 187.211 80.0387 188.364 79.4542 188.962ZM86.8301 191.157C86.5883 191.941 85.4639 192.297 84.3312 191.964C83.2002 191.621 82.46 190.704 82.6885 189.912C82.9237 189.124 84.053 188.753 85.194 189.109C86.3234 189.45 87.0652 190.361 86.8301 191.157ZM95.2242 192.089C95.2523 192.913 94.2919 193.597 93.1029 193.612C91.9073 193.639 90.9402 192.971 90.9269 192.16C90.9269 191.327 91.8659 190.65 93.0615 190.63C94.2505 190.607 95.2242 191.269 95.2242 192.089ZM103.47 191.773C103.613 192.577 102.787 193.404 101.606 193.624C100.445 193.836 99.3702 193.339 99.2229 192.541C99.0788 191.716 99.92 190.89 101.079 190.676C102.262 190.471 103.32 190.955 103.47 191.773Z" fill="white"/>
</svg><svg x="3600" y="0" width="256" height="256" viewBox="0 0 256 256">
<rect width="256" height="256" rx="60" fill="#242938"/>
<path fill-rule="evenodd" clip-rule="evenodd" d="M76.0652 43C94.3271 43 109.13 57.8034 109.13 76.0652C109.13 94.3271 94.3271 109.13 76.0652 109.13C57.8034 109.13 43 94.3271 43 76.0652C43 57.8034 57.8034 43 76.0652 43Z" stroke="#2088FF" stroke-width="7.34783" stroke-linecap="round" stroke-linejoin="round"/>
<path fill-rule="evenodd" clip-rule="evenodd" d="M123.826 109.13C136 109.13 145.87 119 145.87 131.174C145.87 143.348 136 153.217 123.826 153.217C111.652 153.217 101.783 143.348 101.783 131.174C101.783 119 111.652 109.13 123.826 109.13Z" stroke="#2088FF" stroke-width="7.34783" stroke-linecap="round" stroke-linejoin="round"/>
<path fill-rule="evenodd" clip-rule="evenodd" d="M123.826 167.913C136 167.913 145.87 177.782 145.87 189.957C145.87 202.131 136 212 123.826 212C111.652 212 101.783 202.131 101.783 189.957C101.783 177.782 111.652 167.913 123.826 167.913Z" stroke="#2088FF" stroke-width="7.34783" stroke-linecap="round" stroke-linejoin="round"/>
<path fill-rule="evenodd" clip-rule="evenodd" d="M189.957 167.913C202.131 167.913 212 177.782 212 189.957C212 202.131 202.131 212 189.957 212C177.782 212 167.913 202.131 167.913 189.957C167.913 177.782 177.782 167.913 189.957 167.913Z" stroke="#79B8FF" stroke-width="7.34783" stroke-linecap="round" stroke-linejoin="round"/>
<path d="M131.308 126.056L120.032 137.317L114.555 131.859" stroke="#2088FF" stroke-width="7.34783" stroke-linecap="round" stroke-linejoin="round"/>
<path fill-rule="evenodd" clip-rule="evenodd" d="M189.957 109.13C202.131 109.13 212 119 212 131.174C212 143.348 202.131 153.217 189.957 153.217C177.782 153.217 167.913 143.348 167.913 131.174C167.913 119 177.782 109.13 189.957 109.13Z" stroke="#2088FF" stroke-width="7.34783" stroke-linecap="round" stroke-linejoin="round"/>
<path d="M197.438 126.056L186.162 137.317L180.686 131.859" stroke="#2088FF" stroke-width="7.34783" stroke-linecap="round" stroke-linejoin="round"/>
<path d="M65.0435 64.3532C65.0435 61.4617 68.2291 59.7035 70.6756 61.2446L89.461 73.0784C91.7583 74.5255 91.7462 77.8786 89.439 79.3093L70.6534 90.9574C68.206 92.4747 65.0435 90.7145 65.0435 87.8349V64.3532Z" stroke="#2088FF" stroke-width="7.34783" stroke-linecap="round" stroke-linejoin="round"/>
<path d="M72.3914 109.13V164.239C72.3914 178.442 84.0641 189.956 98.1087 189.956H101.783" stroke="#2088FF" stroke-width="7.34783" stroke-linecap="round" stroke-linejoin="round"/>
<path d="M101.595 134.847C103.624 134.847 105.269 133.203 105.269 131.173C105.269 129.144 103.624 127.5 101.595 127.5V134.847ZM68.7173 109.259C68.7173 123.391 80.1736 134.847 94.3054 134.847V127.5C84.2315 127.5 76.0651 119.333 76.0651 109.259H68.7173ZM94.3054 134.847H101.595V127.5H94.3054V134.847Z" fill="#2088FF"/>
<path d="M146.071 131.174H167.911" stroke="#2088FF" stroke-width="7.34783" stroke-linecap="round" stroke-linejoin="round"/>
<path fill-rule="evenodd" clip-rule="evenodd" d="M116.478 186.283C118.506 186.283 120.152 187.929 120.152 189.957C120.152 191.987 118.506 193.631 116.478 193.631C114.451 193.631 112.804 191.987 112.804 189.957C112.804 187.929 114.451 186.283 116.478 186.283Z" fill="#79B8FF"/>
<path fill-rule="evenodd" clip-rule="evenodd" d="M131.174 186.283C133.201 186.283 134.848 187.929 134.848 189.957C134.848 191.987 133.201 193.631 131.174 193.631C129.147 193.631 127.5 191.987 127.5 189.957C127.5 187.929 129.147 186.283 131.174 186.283Z" fill="#79B8FF"/>
<path d="M164.257 189.981L160.537 190.103" stroke="#79B8FF" stroke-width="7.34783" stroke-linecap="round"/>
</svg></svg>