<svg xmlns="http://www.w3.org/2000/svg" width="470" height="195" viewBox="0 0 470 195">
<style>
.t{font:600 18px 'Segoe UI', Ubuntu, 'Helvetica Neue', Arial, sans-serif;fill:#70a5fd} .l{font:400 14px 'Segoe UI', Ubuntu, 'Helvetica Neue', Arial, sans-serif;fill:#c0caf5} .v{font:700 14px 'Segoe UI', Ubuntu, 'Helvetica Neue', Arial, sans-serif;fill:#c0caf5}
.s{font:400 13px 'Segoe UI', Ubuntu, 'Helvetica Neue', Arial, sans-serif;fill:#c0caf5} .row{animation:f .6s ease-out both}
@keyframes f{from{opacity:0;transform:translateX(-8px)}to{opacity:1;transform:none}}
@media (prefers-reduced-motion){.row{animation:none}}
</style>
<rect x="0.5" y="0.5" width="469" height="194" rx="10" fill="#1a1b27" stroke="#2c5364"/>
<text x="25" y="35" class="t">cybersreejith&#x27;s GitHub Stats</text>
<g class="row" style="animation-delay:0ms"><path transform="translate(25 51)" d="M8 .25a.75.75 0 0 1 .673.418l1.882 3.815 4.21.612a.75.75 0 0 1 .416 1.279l-3.046 2.97.719 4.192a.751.751 0 0 1-1.088.791L8 12.347l-3.766 1.98a.75.75 0 0 1-1.088-.79l.72-4.194L.818 6.374a.75.75 0 0 1 .416-1.28l4.21-.611L7.327.668A.75.75 0 0 1 8 .25Z" fill="#bf91f3"/><text x="50" y="64" class="l">Stars earned:</text><text x="300" y="64" class="v" text-anchor="end">0</text></g>
<g class="row" style="animation-delay:120ms"><path transform="translate(25 74)" d="M5 5.372v.878c0 .414.336.75.75.75h4.5a.75.75 0 0 0 .75-.75v-.878a2.25 2.25 0 1 1 1.5 0v.878a2.25 2.25 0 0 1-2.25 2.25h-1.5v2.128a2.251 2.251 0 1 1-1.5 0V8.5h-1.5A2.25 2.25 0 0 1 3.5 6.25v-.878a2.25 2.25 0 1 1 1.5 0ZM5 3.25a.75.75 0 1 0-1.5 0 .75.75 0 0 0 1.5 0Zm6.75.75a.75.75 0 1 0 0-1.5.75.75 0 0 0 0 1.5Zm-3 8.75a.75.75 0 1 0-1.5 0 .75.75 0 0 0 1.5 0Z" fill="#bf91f3"/><text x="50" y="87" class="l">Public repositories:</text><text x="300" y="87" class="v" text-anchor="end">17</text></g>
<g class="row" style="animation-delay:240ms"><rect x="28" y="100" width="10" height="10" rx="3" fill="#bf91f3"/><text x="50" y="110" class="l">Pull requests:</text><text x="300" y="110" class="v" text-anchor="end">33</text></g>
<g class="row" style="animation-delay:360ms"><rect x="28" y="123" width="10" height="10" rx="3" fill="#bf91f3"/><text x="50" y="133" class="l">Issues opened:</text><text x="300" y="133" class="v" text-anchor="end">15</text></g>
<g class="row" style="animation-delay:480ms"><rect x="28" y="146" width="10" height="10" rx="3" fill="#bf91f3"/><text x="50" y="156" class="l">Commits:</text><text x="300" y="156" class="v" text-anchor="end">136</text></g>
<g class="row" style="animation-delay:600ms"><rect x="28" y="169" width="10" height="10" rx="3" fill="#bf91f3"/><text x="50" y="179" class="l">Followers:</text><text x="300" y="179" class="v" text-anchor="end">2</text></g>
<g transform="translate(345 50) scale(.95)"><path d="M50 0 L95 18 V55 C95 85 72 105 50 115 C28 105 5 85 5 55 V18 Z" fill="none" stroke="#70a5fd" stroke-width="4"/><path d="M30 58 L45 73 L72 44" fill="none" stroke="#bf91f3" stroke-width="6" stroke-linecap="round" stroke-linejoin="round"/></g>
</svg>